<svg xmlns="http://www.w3.org/2000/svg" width="281.64" height="225.108" viewBox="0 0 281.64 225.108"><defs><style>.a,.b{fill:#297b2e;}.a,.e{opacity:0.1;}.c{fill:#46455b;}.d{fill:#162918;}.f{fill:#323444;}.g{fill:#fbb3b2;}.h{fill:#105014;}.i{fill:#3c354c;}.j{fill:#255128;}.k{fill:#a8a8a8;}.l{opacity:0.2;}.m{fill:#787878;}</style></defs><g transform="translate(0)"><rect class="a" width="25.54" height="7.721" rx="3.861" transform="translate(57.575 38.607)"/><rect class="a" width="25.54" height="7.721" rx="3.861" transform="translate(84.303 46.328)"/><rect class="a" width="25.54" height="7.721" rx="3.861" transform="translate(111.03 54.05)"/><rect class="a" width="25.54" height="7.721" rx="3.861" transform="translate(57.575 27.025)"/><rect class="a" width="25.54" height="7.721" rx="3.861" transform="translate(84.303 34.746)"/><rect class="a" width="25.54" height="7.721" rx="3.861" transform="translate(111.03 42.468)"/><rect class="a" width="25.54" height="7.721" rx="3.861" transform="translate(140.728 38.607)"/><rect class="a" width="25.54" height="7.721" rx="3.861" transform="translate(167.456 46.328)"/><rect class="a" width="25.54" height="7.721" rx="3.861" transform="translate(194.184 54.05)"/><rect class="a" width="25.54" height="7.721" rx="3.861" transform="translate(140.728 27.025)"/><rect class="a" width="25.54" height="7.721" rx="3.861" transform="translate(167.456 34.746)"/><rect class="a" width="25.54" height="7.721" rx="3.861" transform="translate(194.184 42.468)"/><rect class="a" width="25.54" height="7.721" rx="3.861" transform="translate(57.575 11.582)"/><rect class="a" width="25.54" height="7.721" rx="3.861" transform="translate(84.303 19.303)"/><rect class="a" width="25.54" height="7.721" rx="3.861" transform="translate(111.03 27.025)"/><rect class="a" width="25.54" height="7.721" rx="3.861" transform="translate(57.575)"/><rect class="a" width="25.54" height="7.721" rx="3.861" transform="translate(84.303 7.721)"/><rect class="a" width="25.54" height="7.721" rx="3.861" transform="translate(111.03 15.443)"/><rect class="a" width="25.54" height="7.721" rx="3.861" transform="translate(140.728 11.582)"/><rect class="a" width="25.54" height="7.721" rx="3.861" transform="translate(167.456 19.303)"/><rect class="a" width="25.54" height="7.721" rx="3.861" transform="translate(194.184 27.025)"/><rect class="a" width="25.54" height="7.721" rx="3.861" transform="translate(140.728)"/><rect class="a" width="25.54" height="7.721" rx="3.861" transform="translate(167.456 7.721)"/><rect class="a" width="25.54" height="7.721" rx="3.861" transform="translate(194.184 15.443)"/><rect class="a" width="25.54" height="7.721" rx="3.861" transform="translate(57.575 176.107)"/><rect class="a" width="25.54" height="7.721" rx="3.861" transform="translate(84.303 183.828)"/><rect class="a" width="25.54" height="7.721" rx="3.861" transform="translate(111.03 191.549)"/><rect class="a" width="25.54" height="7.721" rx="3.861" transform="translate(57.575 164.525)"/><rect class="a" width="25.54" height="7.721" rx="3.861" transform="translate(84.303 172.246)"/><rect class="a" width="25.54" height="7.721" rx="3.861" transform="translate(111.03 179.967)"/><rect class="a" width="25.54" height="7.721" rx="3.861" transform="translate(140.728 176.107)"/><rect class="a" width="25.54" height="7.721" rx="3.861" transform="translate(167.456 183.828)"/><rect class="a" width="25.54" height="7.721" rx="3.861" transform="translate(194.184 191.549)"/><rect class="a" width="25.54" height="7.721" rx="3.861" transform="translate(140.728 164.525)"/><rect class="a" width="25.54" height="7.721" rx="3.861" transform="translate(167.456 172.246)"/><rect class="a" width="25.54" height="7.721" rx="3.861" transform="translate(194.184 179.967)"/><rect class="a" width="25.54" height="7.721" rx="3.861" transform="translate(57.575 149.082)"/><rect class="a" width="25.54" height="7.721" rx="3.861" transform="translate(84.303 156.803)"/><rect class="a" width="25.54" height="7.721" rx="3.861" transform="translate(111.03 164.525)"/><rect class="a" width="25.54" height="7.721" rx="3.861" transform="translate(57.575 137.5)"/><rect class="a" width="25.54" height="7.721" rx="3.861" transform="translate(84.303 145.221)"/><rect class="a" width="25.54" height="7.721" rx="3.861" transform="translate(111.03 152.943)"/><rect class="a" width="25.54" height="7.721" rx="3.861" transform="translate(140.728 149.082)"/><rect class="a" width="25.54" height="7.721" rx="3.861" transform="translate(167.456 156.803)"/><rect class="a" width="25.54" height="7.721" rx="3.861" transform="translate(194.184 164.525)"/><rect class="a" width="25.54" height="7.721" rx="3.861" transform="translate(140.728 137.5)"/><rect class="a" width="25.54" height="7.721" rx="3.861" transform="translate(167.456 145.221)"/><rect class="a" width="25.54" height="7.721" rx="3.861" transform="translate(194.184 152.943)"/><ellipse class="a" cx="130.224" cy="10.691" rx="130.224" ry="10.691" transform="translate(13.028 203.725)"/><path class="b" d="M150.959,249.578c12.28,5.322,19.336,16.334,19.336,16.334s-12.856,2.376-25.139-2.943-19.336-16.334-19.336-16.334S138.676,244.257,150.959,249.578Z" transform="translate(-125.82 -194.103)"/><path class="b" d="M329.088,167.206A26.256,26.256,0,0,1,339.355,158a26.456,26.456,0,0,1-3.489,13.328,26.192,26.192,0,0,1-10.269,9.185A26.208,26.208,0,0,1,329.088,167.206Z" transform="translate(-266.263 -132.163)"/><path class="c" d="M240.7,166.378A36.387,36.387,0,0,0,250.9,182.462a36.373,36.373,0,0,0,.368-19.048,36.357,36.357,0,0,0-10.21-16.084A36.355,36.355,0,0,0,240.7,166.378Z" transform="translate(-205.793 -124.662)"/><path class="d" d="M7.21,0H209.285a7.21,7.21,0,0,1,7.21,7.21v93.976a7.21,7.21,0,0,1-7.21,7.21H7.21A7.21,7.21,0,0,1,0,101.186V7.21A7.21,7.21,0,0,1,7.21,0Z" transform="translate(35.302 41.28)"/><path class="e" d="M118.87,482h216.5v4.392a2.141,2.141,0,0,1-2.141,2.141H121.011a2.141,2.141,0,0,1-2.141-2.141Z" transform="translate(-83.568 -338.858)"/><rect class="b" width="16.037" height="8.018" rx="2.5" transform="translate(56.387 135.124)"/><rect class="b" width="10.988" height="1.188" rx="0.594" transform="translate(76.878 141.954)"/><path class="b" d="M310.165,269.311c7.837,1.446,15.832,0,23.636-.98l23.719-2.97c.959-.122,2.355-.695,2.919.478a9.046,9.046,0,0,1,.128,2.833c.062,2.079.056,4.158,0,6.237-.107,3.974-.4,7.938-.769,11.894-.722,7.742-1.743,15.443-2.254,23.215-.261,3.956-.392,7.923-.276,11.879.027.944.065,1.889.122,2.83.062,1.054.535,2.619-.615,3.323a8.5,8.5,0,0,1-2.7.5c-1.188.187-2.376.336-3.587.457-7.986.8-16.075.466-24.091.419l-24.2-.125-5.9-.033c-.535,0-2.462.321-2.792-.315a6.287,6.287,0,0,1,.3-1.874q.137-.837.3-1.672c.689-3.905,1.5-7.787,2.322-11.665,1.761-8.315,3.564-16.672,4.288-25.166.359-4.262.122-8.562.561-12.815.2-1.975.448-6.382,3.077-6.557,2.227-.148,4.52,0,6.753,0a.445.445,0,1,0,0-.891c-2.109,0-4.22-.056-6.329-.015a3.011,3.011,0,0,0-3.044,1.648c-1.708,3.308-1.532,7.721-1.586,11.333a137.511,137.511,0,0,1-3.184,25.561c-.87,4.256-1.809,8.5-2.673,12.755-.407,2.034-.8,4.075-1.152,6.121-.166.974-1.007,3.121-.267,4.015s3.014.413,4.033.419l7.086.042,13.578.077c8.773.051,17.575.3,26.345.039a61.614,61.614,0,0,0,12.69-1.3,2.032,2.032,0,0,0,1.847-2.15c.071-2.008-.255-4.078-.3-6.094-.3-17.254,3.757-34.268,3.341-51.528-.027-1.173.416-4.131-.867-4.841a3.241,3.241,0,0,0-1.93-.074c-1.158.134-2.313.3-3.472.434l-15.042,1.877c-4.808.594-9.613,1.235-14.43,1.782-5.1.594-10.249.947-15.33,0-.561-.1-.8.754-.238.858Z" transform="translate(-243.043 -206.833)"/><path class="b" d="M318.985,307.73l59.342-2.91c.573-.03.576-.921,0-.891l-59.342,2.91C318.415,306.865,318.412,307.756,318.985,307.73Z" transform="translate(-261.318 -234.754)"/><path class="b" d="M380.6,285.2a1.485,1.485,0,0,0,.526,2.4,3.9,3.9,0,0,0,2.53-.14c1.188-.3,2.376-.561,3.6-.778a49.046,49.046,0,0,1,8.045-.748c1.229-.015,2.45.042,3.68.1a3.974,3.974,0,0,0,2.6-.445,1.682,1.682,0,0,0,.3-2.625c-1.188-1.084-3.748-.454-5.12-.342a114.814,114.814,0,0,0-14.807,2.21c-.558.119-.324.98.238.858q4.832-1.042,9.738-1.675,2.411-.3,4.832-.5c.76-.062,1.521-.119,2.281-.163.3-.018.612-.051.915-.042.941.021,1.051-.148.487.989-.5,1.007-.341.891-1.212.858-.368,0-.736-.042-1.1-.059q-1.131-.047-2.263-.05-2.408,0-4.805.232c-1.354.131-2.705.315-4.045.552-.837.149-1.669.321-2.5.511-.365.086-.734.175-1.1.267-.175.047-.353.089-.529.134q-.974.339-1.66-.891c.4-.413-.229-1.045-.63-.63Z" transform="translate(-304.653 -219.572)"/><path class="b" d="M384.264,333.056c-4.3-.166-8.939.995-11.769,4.455-2.215,2.705-3.478,7.347-1.131,10.394,2.521,3.267,8.051,2.691,11.386,1.3,3.528-1.485,7.389-4.547,8.449-8.378,1.322-4.784-2.97-8.4-7.439-8.455a.446.446,0,0,0,0,.891,6.8,6.8,0,0,1,6.237,3.5c1.244,2.5.172,5.126-1.485,7.127-2.655,3.187-6.807,5.589-11.036,5.521-2.539-.039-5.346-.909-6.133-3.587a8.291,8.291,0,0,1,.974-6.468c2.441-4.158,7.409-5.565,11.965-5.387.573.021.573-.87,0-.891Z" transform="translate(-297.559 -254.749)"/><path class="b" d="M399.716,349.857a1.158,1.158,0,0,0-1.556,1.188c.089,1.158,1.366,1.485,2.325,1.417.829-.071,1.8-.377,1.506-1.414a1.33,1.33,0,0,0-.725-.838,1.678,1.678,0,0,0-.837-.1c-.11,0-1.117.368-.689-.074l-.7-.092a.73.73,0,0,1,.214.594.448.448,0,0,0,.668.383.594.594,0,0,1,.8.695.448.448,0,0,0,.814.344c.3-.535.656-1.6.211-2.156a.951.951,0,0,0-1.227-.045,4.3,4.3,0,0,0-.612.526c-.359.318-.594.466-.46-.143a3.851,3.851,0,0,1,2.245-2.432l-.653-.5a9.388,9.388,0,0,1-1.8,3.519l.76.315a1.984,1.984,0,0,1,1.212-1.933h-.437l.232.38c-.086.561.772.8.858.235.113-.734-.35-1.687-1.209-1.327a2.8,2.8,0,0,0-1.535,2.646c0,.356.5.633.763.318a10.471,10.471,0,0,0,2.022-3.917.451.451,0,0,0-.656-.5,4.98,4.98,0,0,0-2.162,1.883c-.362.594-.817,1.521-.448,2.2a.944.944,0,0,0,1.292.365,3.475,3.475,0,0,0,.745-.594c.11-.1.232-.267.377-.3.131-.089.125-.039-.021.157a1.619,1.619,0,0,1-.258.867l.814.342a1.485,1.485,0,0,0-2.111-1.7l.671.386a1.619,1.619,0,0,0-.336-1.048.451.451,0,0,0-.7-.092,1.165,1.165,0,0,0,.03,1.725c.425.324.633,0,1.1-.074,1.583-.2.659.508.1.532a2.106,2.106,0,0,1-.745-.053q-.93-.315-.116-.811c.532.217.76-.644.238-.858Z" transform="translate(-317.278 -264.951)"/><path class="b" d="M390.515,361.082c.365,1.188-1.143,1.58-1.859,1.99a4.141,4.141,0,0,0-1.286,1.126,8.6,8.6,0,0,0-1.274,3.484c-.113.561.745.8.861.238a10.1,10.1,0,0,1,.751-2.563,4.525,4.525,0,0,1,2.3-1.966c1-.546,1.719-1.393,1.366-2.545C391.207,360.3,390.345,360.533,390.515,361.082Z" transform="translate(-308.793 -274.549)"/><path class="b" d="M394.757,360.37a.861.861,0,0,0-.742.891c0,.353.235.579.4.861A6.8,6.8,0,0,1,395.27,364a4.043,4.043,0,0,1-.051,2.376c-.615,1.1-1.725.891-2.673.891-.891,0-1.58.3-1.55-.944a3.95,3.95,0,0,1,.891-1.954l-.814-.107a15.525,15.525,0,0,1,.27,2.75c0,.413.633.642.829.223a17.2,17.2,0,0,0,1.132-3.13l-.876-.119.154,2.257a.448.448,0,0,0,.829.226,1.01,1.01,0,0,0,.223-.4c.03-.14-.244-1.081-.353-.745l.873.119.062-2.144-.891.119a4.438,4.438,0,0,1,.166,1.871c-.056.5.778.609.891.119l.558-2.881-.814.1a1.969,1.969,0,0,1,.151,1.283c-.065.57.826.564.891,0a3.13,3.13,0,0,0-.273-1.731.448.448,0,0,0-.814.107l-.561,2.881.876.119a4.859,4.859,0,0,0-.2-2.106.445.445,0,0,0-.873.116l-.062,2.144a.448.448,0,0,0,.876.119l.048-.146a.451.451,0,0,0-.113-.434c-.924-1-1.111.594-1.431,1.036l.832.226-.154-2.257a.448.448,0,0,0-.876-.119,15.971,15.971,0,0,1-1.039,2.919l.832.226a16.8,16.8,0,0,0-.3-2.988c-.077-.41-.615-.392-.814-.107-.594.855-1.621,2.723-.829,3.748.692.891,2.869.546,3.8.49,1.467-.083,2-1.013,2.159-2.4a5.869,5.869,0,0,0-.11-1.984c-.08-.35-.891-2.572-1.134-2.527.564-.1.324-.965-.238-.861Z" transform="translate(-311.55 -274.434)"/><path class="b" d="M393.994,364.206l-2.432,3.21.769.448,1.782-2.578-.814-.345-.888,3.389a.448.448,0,0,0,.814.344,15.644,15.644,0,0,1,1.357-1.91l-.742-.434a4.849,4.849,0,0,1-1.12,2.058l.745.434a3.98,3.98,0,0,1,.324-1.188c.229-.514-.5-.968-.769-.451a10.465,10.465,0,0,1-.858,1.348l.814.107.181-.846-.814-.107.131.742a.448.448,0,0,0,.745.2A8.868,8.868,0,0,0,395,365.937h-.766a4,4,0,0,1,.419,1.188c.107.535.817.336.873-.119a24.153,24.153,0,0,0,.2-3h-.891v1.868c0,.484.793.627.876.119a3.4,3.4,0,0,1,.437-1.277h-.781a1.981,1.981,0,0,1,.3,1.01.445.445,0,0,0,.891,0l.113-.594h-.858c.086.526.413,3.486-.748,3.139-.2-.048-.252-.036-.169.033l.264-.564.621-1.316-.832-.226a3.259,3.259,0,0,1-.258,2.008,1.538,1.538,0,0,1-1.678.344,2.97,2.97,0,0,1-.775-.814l-.609.594c.493.359,1.292,1.241,1.927,1.292.484.039.891-.362,1.209-.683a5.176,5.176,0,0,0,1.452-3.81.445.445,0,0,0-.891,0v1.016a.445.445,0,0,0,.891,0v-2.492a.445.445,0,0,0-.891,0,10.687,10.687,0,0,1-.154,1.782l.876.119a20.512,20.512,0,0,1-.1-2.135.445.445,0,0,0-.873-.119c-.134.567-.3,1.126-.454,1.681l.814-.107-.062-.238c-.042-.567-.932-.57-.891,0a1.63,1.63,0,0,0,.184.689.45.45,0,0,0,.814-.107c.169-.558.321-1.117.454-1.681l-.876-.119a20.5,20.5,0,0,0,.1,2.135c.044.457.781.653.873.119a12.264,12.264,0,0,0,.187-2.031h-.891v2.492h.891v-1.016h-.891a4.282,4.282,0,0,1-1.084,3.053,3.637,3.637,0,0,1-.374.368c-.211.2-.4.172-.573-.092a7.417,7.417,0,0,1-1.226-.891c-.368-.264-.873.258-.612.609.683.909,1.7,1.921,2.97,1.485,1.333-.472,1.515-2.278,1.414-3.466-.033-.395-.624-.662-.829-.223-.3.627-.594,1.25-.891,1.88a1.66,1.66,0,0,0-.267.784c.1.668.909.558,1.408.52,1.933-.146,1.627-2.887,1.4-4.265-.074-.457-.739-.386-.858,0a2.621,2.621,0,0,0-.146.843h.891a3.531,3.531,0,0,0-.419-1.458.448.448,0,0,0-.769,0,4.332,4.332,0,0,0-.529,1.485l.891.119V364a.445.445,0,0,0-.891,0,24.149,24.149,0,0,1-.2,3l.876-.119a5.1,5.1,0,0,0-.508-1.39.448.448,0,0,0-.769,0A8.127,8.127,0,0,1,392.59,368l.745.2-.131-.743c-.068-.395-.627-.407-.814-.107a1.954,1.954,0,0,0-.27,1.532c.074.422.609.377.814.107a10.418,10.418,0,0,0,.858-1.345l-.769-.451a5.066,5.066,0,0,0-.416,1.4c-.053.392.413.8.745.434a5.94,5.94,0,0,0,1.348-2.453c.11-.4-.448-.787-.745-.434a17.014,17.014,0,0,0-1.485,2.079l.814.345.906-3.377a.448.448,0,0,0-.814-.344l-1.782,2.581c-.333.478.431.891.769.448l2.423-3.207c.344-.457-.428-.891-.769-.451Z" transform="translate(-312.513 -276.269)"/><path class="b" d="M526.179,329c3.564-2.18,6.4-5.432,9.545-8.152,3.415-2.949,7-5.7,10.691-8.3,7.169-5.049,14.7-9.566,22.22-14.071a.445.445,0,0,0-.448-.769c-7.522,4.505-15.054,9.013-22.223,14.071-3.383,2.376-6.685,4.894-9.851,7.567-3.445,2.91-6.513,6.534-10.394,8.883-.49.3-.042,1.069.448.769Z" transform="translate(-406.809 -230.349)"/><path class="b" d="M681.227,253.844c-3.861.392-8.018,1.375-10.394,4.752-2.052,2.9-2.008,7.971-.08,10.952,2.189,3.388,6.661,3.51,10.136,2.414s7.071-3.017,7.038-7.169a17.326,17.326,0,0,0-1.711-6.566c-.766-1.743-2.123-3.267-4.178-3.074-.567.053-.573.944,0,.891,2.753-.255,3.638,3.014,4.291,5.078.594,1.927,1.143,4.208.211,6.124s-3.181,2.893-5.1,3.593a10.672,10.672,0,0,1-6.534.594c-4.3-1.2-5.488-6.652-4.25-10.519,1.426-4.455,6.474-5.764,10.587-6.18.564-.056.57-.947,0-.891Z" transform="translate(-507.9 -199.542)"/><path class="b" d="M701.227,369.844c-3.861.392-8.018,1.375-10.394,4.752-2.052,2.9-2.008,7.971-.08,10.952,2.189,3.388,6.661,3.51,10.136,2.414s7.071-3.017,7.038-7.169a17.325,17.325,0,0,0-1.711-6.566c-.766-1.743-2.123-3.267-4.178-3.074-.567.053-.573.944,0,.891,2.753-.255,3.638,3.014,4.291,5.078.594,1.927,1.143,4.208.211,6.124s-3.181,2.893-5.1,3.593a10.672,10.672,0,0,1-6.533.594c-4.3-1.2-5.488-6.652-4.25-10.519,1.426-4.455,6.474-5.764,10.587-6.18.564-.056.57-.947,0-.891Z" transform="translate(-521.96 -281.093)"/><path class="b" d="M689.6,247.1l2.813,3.207a.448.448,0,0,0,.742-.2,17.189,17.189,0,0,0,.621-4.823,15.879,15.879,0,0,1,1.262-4.921,16.609,16.609,0,0,1,6.646-7.617c.49-.3.042-1.069-.448-.769a17.438,17.438,0,0,0-6.721,7.383,17.067,17.067,0,0,0-1.485,4.713c-.3,1.927-.027,3.947-.739,5.8l.745-.2-2.8-3.2c-.38-.431-1.007.2-.63.63Z" transform="translate(-522.092 -184.124)"/><path class="b" d="M531.58,411.722q22.977-.7,45.966-.3a.446.446,0,0,0,0-.891q-22.983-.41-45.966.3C531.006,410.849,531,411.74,531.58,411.722Z" transform="translate(-410.776 -309.595)"/><path class="b" d="M697.487,383.2a92.037,92.037,0,0,1,15.048,7.561c.487.3.935-.466.448-.769a93.017,93.017,0,0,0-15.247-7.65c-.532-.211-.763.65-.235.858Z" transform="translate(-527.516 -289.858)"/><path class="b" d="M709.5,371.372a36.38,36.38,0,0,0-8.734,22.134c-.024.573.867.573.891,0a35.381,35.381,0,0,1,8.473-21.5C710.5,371.568,709.877,370.935,709.5,371.372Z" transform="translate(-530.023 -282.065)"/><path class="b" d="M329.184,400.615l33.193-.434,3.816-.05c.686,0,1.372-.024,2.058-.027a1.637,1.637,0,0,1,1.6,1.782c-.045,2.079-1.351,2-3.062,2.079l-4.125.187-16.8.74c-3.008.134-6.02.3-9.028.4-2.714.083-7.876-.8-6.67-4.752.166-.549-.692-.784-.861-.238a4.377,4.377,0,0,0,2.15,4.933c2.4,1.443,5.568.953,8.22.835l20.622-.935,5.007-.223c1.283-.059,3.068.2,4.247-.395,1.384-.7,1.627-3.469.754-4.636a2.064,2.064,0,0,0-1.782-.674c-1.847-.071-3.727.051-5.577.074l-10.281.137-23.494.3a.446.446,0,0,0,0,.891Z" transform="translate(-268.479 -301.722)"/><g transform="translate(190.641 66.707)"><path class="f" d="M771.934,756.608c-.748.469-1.6.734-2.376,1.146a3.251,3.251,0,0,0-1.743,1.889,1.188,1.188,0,0,0,.039.808,1.568,1.568,0,0,0,.832.659,12.619,12.619,0,0,0,9.981.113,13.121,13.121,0,0,1,1.722-.683,11.192,11.192,0,0,1,2.207-.226,16.974,16.974,0,0,0,2.319-.3,2.04,2.04,0,0,0,1.051-.437,1.951,1.951,0,0,0,.472-1.134,9.34,9.34,0,0,0-1.485-6.617,2.236,2.236,0,0,0-.647-.686,2.5,2.5,0,0,0-1.031-.276c-1.485-.181-3.041-.514-4.541-.549a3.05,3.05,0,0,0-2.376,1.227C774.788,753.116,773.87,755.4,771.934,756.608Z" transform="translate(-767.762 -615.284)"/><path class="f" d="M855.086,756.053a6.789,6.789,0,0,0,1.057,4.158,5.493,5.493,0,0,0,1.443,1.262,6.5,6.5,0,0,0,6.3.618,1.871,1.871,0,0,0,.784-.659,2.247,2.247,0,0,0-.027-1.731l-2.845-9.86c-1.838.282-4.541.481-6.174,1.414C854.441,751.928,855.086,754.752,855.086,756.053Z" transform="translate(-829.03 -614.948)"/><path class="g" d="M772.747,559.986c-.172.544-.8.8-1.137,1.253a2.379,2.379,0,0,0-.214,1.936,5.119,5.119,0,0,0,1.3,2.569,3.08,3.08,0,0,0,2.673.909,2.227,2.227,0,0,0,1.815-2,3.781,3.781,0,0,0-.279-1.286l-2.025-5.856a.222.222,0,0,0-.365-.16c-.478.226-1.437.463-1.716.959S772.949,559.448,772.747,559.986Z" transform="translate(-770.244 -479.592)"/><path class="f" d="M773,553.858a9.606,9.606,0,0,0,2.079-.835,2.145,2.145,0,0,1,2.141.08c.166.137.327.324.544.321a21.259,21.259,0,0,0-1.33-4.229.33.33,0,0,0-.116-.163.336.336,0,0,0-.252,0l-2,.523c-.74.193-.826.134-.769.861C773.312,550.739,773.478,553.858,773,553.858Z" transform="translate(-771.444 -473.758)"/><path class="h" d="M769.432,422.662a2.814,2.814,0,0,0-.3,1.565,53.218,53.218,0,0,0,.416,7.873c.092.624.208,1.247.267,1.877a21.664,21.664,0,0,1,.042,2.634l-.3,11.434a6.612,6.612,0,0,1-.971,4,1.913,1.913,0,0,0-.348,1.268c.226,2.869.7,5.714,1.173,8.55a5.283,5.283,0,0,1,4.793.229,52.764,52.764,0,0,0,2.462-14.552,57.787,57.787,0,0,1,.339-7.282A46.326,46.326,0,0,0,776.922,428a6.776,6.776,0,0,0-1.28-3.614,5.48,5.48,0,0,0-2.97-1.711A12.985,12.985,0,0,0,769.432,422.662Z" transform="translate(-768.096 -384.851)"/><path class="i" d="M782.181,525.121a52.448,52.448,0,0,0,3.124,30.363,8.238,8.238,0,0,1,.725,2.245c.163,1.455-.508,2.854-.891,4.262-.891,3.2-.377,6.611.193,9.886q.356,2.049.734,4.1a6.258,6.258,0,0,1-.134,3.982c.531,2.216.846,4.41,1.378,6.626a1.26,1.26,0,0,1,.051.544,1.6,1.6,0,0,1-.543.728,3.249,3.249,0,0,0-.829,3.109c1.357-.974,3.249-.633,4.8,0s3.077,1.485,4.752,1.485a12.032,12.032,0,0,1,.247-5.874c.422-1.069,1.164-2.079,1.143-3.222-.021-1.024-.647-1.939-.8-2.952a7.477,7.477,0,0,1,.071-1.889,47.218,47.218,0,0,0-.5-10.935,6.541,6.541,0,0,0-.5-2.079,3.068,3.068,0,0,1-.52-1.315c0-.555.448-1.007.615-1.535.3-.974-.25-2.3.573-2.9,2.168-1.592,1.336-5.393,1.289-8.081q-.057-3.478-.3-6.949a29.6,29.6,0,0,1,1.639,11.98,8.576,8.576,0,0,0,.25,3.959c.4.944,1.188,1.722,1.4,2.723a11.419,11.419,0,0,1,.068,1.886,1.942,1.942,0,0,0,.787,1.633c.042,2.863.3,5.925.342,8.788a21.676,21.676,0,0,0,.356,4.366,5.549,5.549,0,0,1,.22,1.408,5.876,5.876,0,0,1-.469,1.731,9.928,9.928,0,0,0,1.485,9.162,4.428,4.428,0,0,1,3.587-2.008,13.015,13.015,0,0,1,4.214.618,8.252,8.252,0,0,1,.986-5.019,4.109,4.109,0,0,0,.52-1.117,4.948,4.948,0,0,0-.416-2.251,11.316,11.316,0,0,1-.137-3.709,58.693,58.693,0,0,0-.549-12.449,10.536,10.536,0,0,0-.567-2.376c-.107-.273-.238-.535-.327-.811a6.394,6.394,0,0,1-.238-1.521l-.342-4.752c-.24-3.329.852-6.617,1.616-9.866.341-1.455.713-2.907.941-4.386.312-2.014.362-4.072.82-6.058a39.067,39.067,0,0,0,1.3-5.346c.238-2.83-.938-5.565-2.079-8.161-.475-1.069-2.272-.962-3.427-1.152-8.194-1.345-16.824-1.354-24.551,1.678A6.108,6.108,0,0,0,782.181,525.121Z" transform="translate(-777.216 -454.153)"/><path class="g" d="M801.509,351.3l.909,3.534a9.435,9.435,0,0,1,.407,2.5,1.845,1.845,0,0,1-.2.891,2.126,2.126,0,0,1-.564.576c-.621.472-1.051,1.574-1.761,1.9.365.636.87.223,1.53.54a16.6,16.6,0,0,0,3.483,1.654,7.772,7.772,0,0,0,3.614-.3,12.482,12.482,0,0,0,4.68-2.177c1.345-1.1,2.111-2.064,2.105-3.8-1.485.175-2.806-1.324-3.463-2.673a7.267,7.267,0,0,1-.5-1.6l-.8-3.5a17.167,17.167,0,0,0-2.4,1.134,8.722,8.722,0,0,1-2.729.4,29.4,29.4,0,0,0-4.859.63c-.22.045-.5.184-.442.4" transform="translate(-790.637 -333.042)"/><path class="e" d="M801.509,351.3l.909,3.534a9.435,9.435,0,0,1,.407,2.5,1.845,1.845,0,0,1-.2.891,2.126,2.126,0,0,1-.564.576c-.621.472-1.051,1.574-1.761,1.9.365.636.87.223,1.53.54a16.6,16.6,0,0,0,3.483,1.654,7.772,7.772,0,0,0,3.614-.3,12.482,12.482,0,0,0,4.68-2.177c1.345-1.1,2.111-2.064,2.105-3.8-1.485.175-2.806-1.324-3.463-2.673a7.267,7.267,0,0,1-.5-1.6l-.8-3.5a17.167,17.167,0,0,0-2.4,1.134,8.722,8.722,0,0,1-2.729.4,29.4,29.4,0,0,0-4.859.63c-.22.045-.5.184-.442.4" transform="translate(-790.637 -333.042)"/><ellipse class="g" cx="8.092" cy="10.45" rx="8.092" ry="10.45" transform="translate(6.754 0.984)"/><path class="f" d="M803.182,367.613a7.127,7.127,0,0,1,1.782-2.376c1.108-.971,2.622-1.758,2.884-3.207l2.4,2.795a1.292,1.292,0,0,1,.3.457,1.153,1.153,0,0,1-.226.924,9.618,9.618,0,0,1-2.414,2.31,73.349,73.349,0,0,0-5.818,5.132.594.594,0,0,1-.312.19.562.562,0,0,1-.324-.092,13.509,13.509,0,0,1-4.149-3.374c-.086-.1-.193-.223-.333-.214a.428.428,0,0,0-.223.116c-.8.653-1.672,1.434-2.7,1.333a6.388,6.388,0,0,0,2.358-4.158,7.861,7.861,0,0,1,.339-1.624,1.7,1.7,0,0,1,1.158-1.1,2.605,2.605,0,0,0,.665,3.189,6.558,6.558,0,0,0,2.946,1.428C802.526,369.535,802.823,368.391,803.182,367.613Z" transform="translate(-786.243 -342.308)"/><path class="f" d="M781.6,523.735c1.12.276,2.18.745,3.267,1.093a15.61,15.61,0,0,0,6.133.644,3.312,3.312,0,0,0,1.782-.567c.139-.113.267-.247.416-.351a2.907,2.907,0,0,1,.8-.33c2.723-.852,5-2.691,7.217-4.49.071-.059.151-.134.146-.229a.3.3,0,0,0-.089-.169L800.1,518a48.138,48.138,0,0,1-9.278.246,13.461,13.461,0,0,0-1.906.051c-.612.071-1.215.226-1.818.356-2.29.5-4.63.689-6.949,1.016a1.074,1.074,0,0,0-.46.143,1.038,1.038,0,0,0-.246.273l-.814,1.143a3.6,3.6,0,0,0-.683,1.31c-.19.891.208,1.188.965,1.072A7.048,7.048,0,0,1,781.6,523.735Z" transform="translate(-774.89 -451.959)"/><path class="j" d="M785.713,378.964a14.459,14.459,0,0,0-3.062-2.391,4.338,4.338,0,0,0-1.485-.594,1.853,1.853,0,0,0-1.521.374c-.264.235-.431.561-.686.808a3.411,3.411,0,0,1-1.087.615,19.282,19.282,0,0,0-3.819,2.177,8.763,8.763,0,0,0-1.732,1.6c-1.345,1.722-1.547,4.066-1.511,6.251.027,1.521,1.485,2.649,2.489,3.786a27.9,27.9,0,0,1,2.548,3.564,4.852,4.852,0,0,1,1.036,2.8,15.875,15.875,0,0,0-.466,2.45c.027.3.122.57.148.858a9.656,9.656,0,0,1-.241,1.782,22.66,22.66,0,0,0,.208,2.521,8.027,8.027,0,0,1-.22,1.72,32.115,32.115,0,0,0-1.14,8.214l-1.645.3a1.39,1.39,0,0,1-.318,2.218c2.569.858,5.346.425,8.069.422,2.254,0,4.5.3,6.75.255a11.667,11.667,0,0,0,6.43-1.722c.5-.344.968-.748,1.5-1.048a7.4,7.4,0,0,1,2.272-.742,22.544,22.544,0,0,1,4.455-.4,3.43,3.43,0,0,0,2.109-.41,3.014,3.014,0,0,0,.891-2.168c.086-.843.14-1.69.154-2.536a10.934,10.934,0,0,0-.1-1.972,12.944,12.944,0,0,0-.348-1.414l-1.12-3.944c-.463-1.627.181-3.412.318-5.1a1.278,1.278,0,0,0-.267-1.117c-.11-.092-.261-.154-.3-.3a.508.508,0,0,1,.071-.4,21.977,21.977,0,0,1,2.3-3.308,67.606,67.606,0,0,0,3.8-5.842,18.8,18.8,0,0,0-5.031-11.249,5.442,5.442,0,0,0-2.106-1.553,6.237,6.237,0,0,0-1.675-.27c-2.328-.157-4.751-.3-6.78-1.467a1.29,1.29,0,0,0-.484-.2c-.448-.05-.775.392-1.066.742a12.777,12.777,0,0,1-2.818,2.058A19.985,19.985,0,0,0,785.713,378.964Z" transform="translate(-769.903 -348.984)"/><path class="j" d="M876.692,417.266a22.3,22.3,0,0,1,.57,4.565,17.752,17.752,0,0,0,.484,2.735,4.365,4.365,0,0,0,.564,1.393,6.13,6.13,0,0,1,.82,1.152,2.781,2.781,0,0,1,.122.927l.036,2.049a7.37,7.37,0,0,1-.484,3.189l-1.28,3.893a23.857,23.857,0,0,1-2.649,6.085,1.756,1.756,0,0,1-.763.716,3.707,3.707,0,0,1-.769.119,1.978,1.978,0,0,0-1.63,1.921,4.507,4.507,0,0,0-1.1-1.12l-2.6-2.079a11.133,11.133,0,0,0-2.9-1.88,7.867,7.867,0,0,0,5.47-6.611,2.97,2.97,0,0,1,.3-1.3c.217-.35.618-.618.647-1.03.035-.52-.553-.912-.553-1.431,0-.344.255-.63.368-.953a2.394,2.394,0,0,0,0-1.221l-.359-2a1.524,1.524,0,0,0-.178-.57,3.687,3.687,0,0,0-.445-.469c-.618-.692-.344-1.782,0-2.634a25.179,25.179,0,0,1,3.035-5.325,18.218,18.218,0,0,0,1.209-1.728c.315-.546.386-1.3.719-1.782C875.747,415,876.327,416.11,876.692,417.266Z" transform="translate(-836.2 -378.76)"/><path class="f" d="M860.814,504.736a1.428,1.428,0,0,0-.339.356,3,3,0,0,1-1.345.959c.3.214.567.425.846.641a37.087,37.087,0,0,1,5.643,5.4c.187-.668,1.307-.621,1.58-1.259a1.232,1.232,0,0,0,.059-.57,17.373,17.373,0,0,0-.428-2.97,3.363,3.363,0,0,0-.594-1.39,3.563,3.563,0,0,0-1.681-.95C863.62,504.623,861.764,504.163,860.814,504.736Z" transform="translate(-831.996 -442.443)"/><path class="g" d="M840.932,510.991a15.635,15.635,0,0,1-2.673,1.936,10.052,10.052,0,0,0-2.129.939,2.116,2.116,0,0,0,2.019,1.093,4.8,4.8,0,0,0,2.26-.829c.532-.327,1.155-.707,1.734-.478.089.451-.3.876-.3,1.333a1.344,1.344,0,0,0,.754,1.031c1.782,1.149,4.075,1.054,6.2.921a.558.558,0,0,0,.342-.1.538.538,0,0,0,.128-.392c.027-.469.039-.936.042-1.4a2.013,2.013,0,0,0-.861-1.984,24.231,24.231,0,0,0-3.712-2.628C843.43,509.67,842.105,510.118,840.932,510.991Z" transform="translate(-815.826 -446.364)"/><path class="i" d="M822.091,326.066a2.431,2.431,0,1,0,3.1,2.045A2.641,2.641,0,0,0,822.091,326.066Zm.529,4.4a2.058,2.058,0,1,1,2.139-2.3A2.241,2.241,0,0,1,822.619,330.463Z" transform="translate(-803.988 -318.507)"/><path class="i" d="M800.451,328.665a2.431,2.431,0,1,0,3.1,2.041A2.64,2.64,0,0,0,800.451,328.665Zm.529,4.394a2.058,2.058,0,1,1,2.139-2.3A2.236,2.236,0,0,1,800.979,333.059Z" transform="translate(-789.924 -320.197)"/><path class="i" d="M662.941,259.64l1.463.721-.144.889-1.38-.935Z" transform="translate(-656.126 -250.496)"/><path class="i" d="M709.789,253.18l-1.619,1.5.278.784,1.494-1.663Z" transform="translate(-687.553 -246.297)"/><path class="i" d="M687.31,260.534l2.37-.284-.123.588-2.034.136Z" transform="translate(-673.997 -250.892)"/></g><path class="c" d="M912.81,682c0,14.92,9.361,26.995,20.928,26.995" transform="translate(-679.093 -500.548)"/><path class="b" d="M983.28,708.288c0-15.089,10.448-27.3,23.357-27.3" transform="translate(-728.635 -499.838)"/><path class="b" d="M938.35,686.56c0,14.175,5.969,25.644,13.343,25.644" transform="translate(-697.048 -503.754)"/><path class="c" d="M983.28,690.333c0-19.28,12.075-34.883,27-34.883" transform="translate(-728.635 -481.882)"/><ellipse class="a" cx="5.203" cy="0.879" rx="5.203" ry="0.879" transform="translate(248.536 211.848)"/><path class="k" d="M968.46,769.754s2.97-.092,3.861-.728,4.565-1.4,4.787-.377,4.455,5.081,1.108,5.108-7.787-.523-8.678-1.066S968.46,769.754,968.46,769.754Z" transform="translate(-718.216 -561.114)"/><path class="l" d="M978.278,777.19c-3.35.027-7.784-.523-8.678-1.066-.68-.413-.95-1.9-1.042-2.584h-.1s.187,2.394,1.081,2.937,5.328,1.093,8.678,1.066c.968,0,1.3-.353,1.283-.861C979.368,776.991,979.015,777.184,978.278,777.19Z" transform="translate(-718.216 -564.903)"/><path class="c" d="M148.31,711.36c0,11.879,7.445,21.477,16.648,21.477" transform="translate(-141.631 -521.188)"/><path class="b" d="M204.37,732.268c0-12,8.315-21.718,18.582-21.718" transform="translate(-181.043 -520.619)"/><path class="b" d="M168.62,715c0,11.285,4.752,20.4,10.617,20.4" transform="translate(-155.909 -523.747)"/><path class="c" d="M204.37,717.982c0-15.339,9.607-27.752,21.477-27.752" transform="translate(-181.043 -506.334)"/><ellipse class="a" cx="4.14" cy="0.701" rx="4.14" ry="0.701" transform="translate(18.466 214.351)"/><path class="k" d="M192.58,781.127a8.444,8.444,0,0,0,3.071-.594c.71-.52,3.635-1.114,3.81-.3s3.549,4.042.891,4.063-6.195-.416-6.9-.846S192.58,781.127,192.58,781.127Z" transform="translate(-172.754 -569.327)"/><path class="l" d="M200.39,787.124c-2.673.021-6.195-.416-6.9-.849-.54-.327-.754-1.512-.829-2.055h-.077s.148,1.9.858,2.337,4.241.867,6.9.846c.769,0,1.036-.279,1.022-.686C201.258,786.955,200.964,787.107,200.39,787.124Z" transform="translate(-172.754 -572.411)"/><path class="m" d="M7.981.006c6.153-.228,7.968,5.767,7.968,7.4,0,1.517-2.912-3.941-4.259-4.386a7.615,7.615,0,0,0-3.438.173A10.281,10.281,0,0,0,3.7,4.313C1.122,5.9,0,9.25,0,8.044,0,6.416,2.075.195,7.981.006Z" transform="matrix(0.995, -0.105, 0.105, 0.995, 196.438, 68.142)"/></g></svg>