<svg xmlns="http://www.w3.org/2000/svg" xmlns:xlink="http://www.w3.org/1999/xlink" width="392.974" height="705.641" viewBox="0 0 392.974 705.641"><defs><style>.a{fill:none;}.b{clip-path:url(#a);}.c{fill:#f8f8f8;}</style><clipPath id="a"><rect class="a" width="392.974" height="705.641"/></clipPath></defs><g class="b"><g transform="translate(191.799 -585)"><path class="c" d="M50.117,1.928a8.8,8.8,0,0,1,7.044,14.088l-3.522,3.522L41.312,7.211l3.522-3.522a8.765,8.765,0,0,1,5.283-1.761ZM6.093,42.431,2.571,58.28,18.42,54.758,51,22.179,38.671,9.852ZM41.95,21.936,17.3,46.59,14.26,43.555,38.914,18.9l3.035,3.035Z" transform="translate(-73.873 591.106)"/><path class="c" d="M65.577,46.288v-36a4.514,4.514,0,0,0-4.5-4.5h-45a4.514,4.514,0,0,0-4.5,4.5v36h-9v13.5H74.578v-13.5Zm-18,9h-18v-4.5h18Zm13.5-9h-45v-36l.008-.008H61.068l.008.008Z" transform="translate(-81.404 701.108)"/><path class="c" d="M75.6,19.105,66.137,2.991a3.827,3.827,0,0,0-5.173-1.368l-8.206,4.65,7.1,12.095a.923.923,0,0,1-.345,1.272l-1.641.928a.951.951,0,0,1-1.3-.345L49.475,8.14l-6.565,3.722L46.229,17.5a.923.923,0,0,1-.345,1.272l-1.641.928a.951.951,0,0,1-1.3-.345L39.628,13.73l-6.565,3.722,7.112,12.095a.926.926,0,0,1-.345,1.272l-1.641.928a.951.951,0,0,1-1.3-.345l-7.1-12.095L23.229,23.03l3.318,5.637a.923.923,0,0,1-.345,1.272l-1.641.928a.951.951,0,0,1-1.3-.345l-3.318-5.649L13.382,28.6l7.1,12.095a.926.926,0,0,1-.345,1.272L18.5,42.89a.951.951,0,0,1-1.3-.345L10.1,30.486l-8.206,4.65A3.7,3.7,0,0,0,.5,40.226L9.969,56.352a3.827,3.827,0,0,0,5.173,1.368L74.223,24.2A3.692,3.692,0,0,0,75.6,19.105Z" transform="translate(-191.796 703.425)"/><path class="c" d="M914.015,540.291h-42.5a11.653,11.653,0,0,0-11.638,11.64v47.225a3.79,3.79,0,0,0,.078.761,11.619,11.619,0,0,0,11.56,10.875h42.5a3.765,3.765,0,0,0,3.766-3.766v-62.97A3.764,3.764,0,0,0,914.015,540.291Zm-42.5,7.531H910.25v39.7H871.512a11.525,11.525,0,0,0-4.107.786V551.931A4.112,4.112,0,0,1,871.512,547.822Zm0,55.439a4.106,4.106,0,1,1,0-8.211H910.25v8.211Z" transform="translate(-1044.646 44.709)"/></g><g transform="translate(396.799 -585)"><path class="c" d="M50.117,1.928a8.8,8.8,0,0,1,7.044,14.088l-3.522,3.522L41.312,7.211l3.522-3.522a8.765,8.765,0,0,1,5.283-1.761ZM6.093,42.431,2.571,58.28,18.42,54.758,51,22.179,38.671,9.852ZM41.95,21.936,17.3,46.59,14.26,43.555,38.914,18.9l3.035,3.035Z" transform="translate(-73.873 591.106)"/><path class="c" d="M65.577,46.288v-36a4.514,4.514,0,0,0-4.5-4.5h-45a4.514,4.514,0,0,0-4.5,4.5v36h-9v13.5H74.578v-13.5Zm-18,9h-18v-4.5h18Zm13.5-9h-45v-36l.008-.008H61.068l.008.008Z" transform="translate(-81.404 701.108)"/><path class="c" d="M75.6,19.105,66.137,2.991a3.827,3.827,0,0,0-5.173-1.368l-8.206,4.65,7.1,12.095a.923.923,0,0,1-.345,1.272l-1.641.928a.951.951,0,0,1-1.3-.345L49.475,8.14l-6.565,3.722L46.229,17.5a.923.923,0,0,1-.345,1.272l-1.641.928a.951.951,0,0,1-1.3-.345L39.628,13.73l-6.565,3.722,7.112,12.095a.926.926,0,0,1-.345,1.272l-1.641.928a.951.951,0,0,1-1.3-.345l-7.1-12.095L23.229,23.03l3.318,5.637a.923.923,0,0,1-.345,1.272l-1.641.928a.951.951,0,0,1-1.3-.345l-3.318-5.649L13.382,28.6l7.1,12.095a.926.926,0,0,1-.345,1.272L18.5,42.89a.951.951,0,0,1-1.3-.345L10.1,30.486l-8.206,4.65A3.7,3.7,0,0,0,.5,40.226L9.969,56.352a3.827,3.827,0,0,0,5.173,1.368L74.223,24.2A3.692,3.692,0,0,0,75.6,19.105Z" transform="translate(-191.796 703.425)"/><path class="c" d="M914.015,540.291h-42.5a11.653,11.653,0,0,0-11.638,11.64v47.225a3.79,3.79,0,0,0,.078.761,11.619,11.619,0,0,0,11.56,10.875h42.5a3.765,3.765,0,0,0,3.766-3.766v-62.97A3.764,3.764,0,0,0,914.015,540.291Zm-42.5,7.531H910.25v39.7H871.512a11.525,11.525,0,0,0-4.107.786V551.931A4.112,4.112,0,0,1,871.512,547.822Zm0,55.439a4.106,4.106,0,1,1,0-8.211H910.25v8.211Z" transform="translate(-1044.646 44.709)"/></g><g transform="translate(191.799 -388)"><path class="c" d="M50.117,1.928a8.8,8.8,0,0,1,7.044,14.088l-3.522,3.522L41.312,7.211l3.522-3.522a8.765,8.765,0,0,1,5.283-1.761ZM6.093,42.431,2.571,58.28,18.42,54.758,51,22.179,38.671,9.852ZM41.95,21.936,17.3,46.59,14.26,43.555,38.914,18.9l3.035,3.035Z" transform="translate(-73.873 591.106)"/><path class="c" d="M65.577,46.288v-36a4.514,4.514,0,0,0-4.5-4.5h-45a4.514,4.514,0,0,0-4.5,4.5v36h-9v13.5H74.578v-13.5Zm-18,9h-18v-4.5h18Zm13.5-9h-45v-36l.008-.008H61.068l.008.008Z" transform="translate(-81.404 701.108)"/><path class="c" d="M75.6,19.105,66.137,2.991a3.827,3.827,0,0,0-5.173-1.368l-8.206,4.65,7.1,12.095a.923.923,0,0,1-.345,1.272l-1.641.928a.951.951,0,0,1-1.3-.345L49.475,8.14l-6.565,3.722L46.229,17.5a.923.923,0,0,1-.345,1.272l-1.641.928a.951.951,0,0,1-1.3-.345L39.628,13.73l-6.565,3.722,7.112,12.095a.926.926,0,0,1-.345,1.272l-1.641.928a.951.951,0,0,1-1.3-.345l-7.1-12.095L23.229,23.03l3.318,5.637a.923.923,0,0,1-.345,1.272l-1.641.928a.951.951,0,0,1-1.3-.345l-3.318-5.649L13.382,28.6l7.1,12.095a.926.926,0,0,1-.345,1.272L18.5,42.89a.951.951,0,0,1-1.3-.345L10.1,30.486l-8.206,4.65A3.7,3.7,0,0,0,.5,40.226L9.969,56.352a3.827,3.827,0,0,0,5.173,1.368L74.223,24.2A3.692,3.692,0,0,0,75.6,19.105Z" transform="translate(-191.796 703.425)"/><path class="c" d="M914.015,540.291h-42.5a11.653,11.653,0,0,0-11.638,11.64v47.225a3.79,3.79,0,0,0,.078.761,11.619,11.619,0,0,0,11.56,10.875h42.5a3.765,3.765,0,0,0,3.766-3.766v-62.97A3.764,3.764,0,0,0,914.015,540.291Zm-42.5,7.531H910.25v39.7H871.512a11.525,11.525,0,0,0-4.107.786V551.931A4.112,4.112,0,0,1,871.512,547.822Zm0,55.439a4.106,4.106,0,1,1,0-8.211H910.25v8.211Z" transform="translate(-1044.646 44.709)"/></g><g transform="translate(396.799 -388)"><path class="c" d="M50.117,1.928a8.8,8.8,0,0,1,7.044,14.088l-3.522,3.522L41.312,7.211l3.522-3.522a8.765,8.765,0,0,1,5.283-1.761ZM6.093,42.431,2.571,58.28,18.42,54.758,51,22.179,38.671,9.852ZM41.95,21.936,17.3,46.59,14.26,43.555,38.914,18.9l3.035,3.035Z" transform="translate(-73.873 591.106)"/><path class="c" d="M65.577,46.288v-36a4.514,4.514,0,0,0-4.5-4.5h-45a4.514,4.514,0,0,0-4.5,4.5v36h-9v13.5H74.578v-13.5Zm-18,9h-18v-4.5h18Zm13.5-9h-45v-36l.008-.008H61.068l.008.008Z" transform="translate(-81.404 701.108)"/><path class="c" d="M75.6,19.105,66.137,2.991a3.827,3.827,0,0,0-5.173-1.368l-8.206,4.65,7.1,12.095a.923.923,0,0,1-.345,1.272l-1.641.928a.951.951,0,0,1-1.3-.345L49.475,8.14l-6.565,3.722L46.229,17.5a.923.923,0,0,1-.345,1.272l-1.641.928a.951.951,0,0,1-1.3-.345L39.628,13.73l-6.565,3.722,7.112,12.095a.926.926,0,0,1-.345,1.272l-1.641.928a.951.951,0,0,1-1.3-.345l-7.1-12.095L23.229,23.03l3.318,5.637a.923.923,0,0,1-.345,1.272l-1.641.928a.951.951,0,0,1-1.3-.345l-3.318-5.649L13.382,28.6l7.1,12.095a.926.926,0,0,1-.345,1.272L18.5,42.89a.951.951,0,0,1-1.3-.345L10.1,30.486l-8.206,4.65A3.7,3.7,0,0,0,.5,40.226L9.969,56.352a3.827,3.827,0,0,0,5.173,1.368L74.223,24.2A3.692,3.692,0,0,0,75.6,19.105Z" transform="translate(-191.796 703.425)"/><path class="c" d="M914.015,540.291h-42.5a11.653,11.653,0,0,0-11.638,11.64v47.225a3.79,3.79,0,0,0,.078.761,11.619,11.619,0,0,0,11.56,10.875h42.5a3.765,3.765,0,0,0,3.766-3.766v-62.97A3.764,3.764,0,0,0,914.015,540.291Zm-42.5,7.531H910.25v39.7H871.512a11.525,11.525,0,0,0-4.107.786V551.931A4.112,4.112,0,0,1,871.512,547.822Zm0,55.439a4.106,4.106,0,1,1,0-8.211H910.25v8.211Z" transform="translate(-1044.646 44.709)"/></g><g transform="translate(191.799 -191)"><path class="c" d="M50.117,1.928a8.8,8.8,0,0,1,7.044,14.088l-3.522,3.522L41.312,7.211l3.522-3.522a8.765,8.765,0,0,1,5.283-1.761ZM6.093,42.431,2.571,58.28,18.42,54.758,51,22.179,38.671,9.852ZM41.95,21.936,17.3,46.59,14.26,43.555,38.914,18.9l3.035,3.035Z" transform="translate(-73.873 591.106)"/><path class="c" d="M65.577,46.288v-36a4.514,4.514,0,0,0-4.5-4.5h-45a4.514,4.514,0,0,0-4.5,4.5v36h-9v13.5H74.578v-13.5Zm-18,9h-18v-4.5h18Zm13.5-9h-45v-36l.008-.008H61.068l.008.008Z" transform="translate(-81.404 701.108)"/><path class="c" d="M75.6,19.105,66.137,2.991a3.827,3.827,0,0,0-5.173-1.368l-8.206,4.65,7.1,12.095a.923.923,0,0,1-.345,1.272l-1.641.928a.951.951,0,0,1-1.3-.345L49.475,8.14l-6.565,3.722L46.229,17.5a.923.923,0,0,1-.345,1.272l-1.641.928a.951.951,0,0,1-1.3-.345L39.628,13.73l-6.565,3.722,7.112,12.095a.926.926,0,0,1-.345,1.272l-1.641.928a.951.951,0,0,1-1.3-.345l-7.1-12.095L23.229,23.03l3.318,5.637a.923.923,0,0,1-.345,1.272l-1.641.928a.951.951,0,0,1-1.3-.345l-3.318-5.649L13.382,28.6l7.1,12.095a.926.926,0,0,1-.345,1.272L18.5,42.89a.951.951,0,0,1-1.3-.345L10.1,30.486l-8.206,4.65A3.7,3.7,0,0,0,.5,40.226L9.969,56.352a3.827,3.827,0,0,0,5.173,1.368L74.223,24.2A3.692,3.692,0,0,0,75.6,19.105Z" transform="translate(-191.796 703.425)"/><path class="c" d="M914.015,540.291h-42.5a11.653,11.653,0,0,0-11.638,11.64v47.225a3.79,3.79,0,0,0,.078.761,11.619,11.619,0,0,0,11.56,10.875h42.5a3.765,3.765,0,0,0,3.766-3.766v-62.97A3.764,3.764,0,0,0,914.015,540.291Zm-42.5,7.531H910.25v39.7H871.512a11.525,11.525,0,0,0-4.107.786V551.931A4.112,4.112,0,0,1,871.512,547.822Zm0,55.439a4.106,4.106,0,1,1,0-8.211H910.25v8.211Z" transform="translate(-1044.646 44.709)"/></g><g transform="translate(396.799 -191)"><path class="c" d="M50.117,1.928a8.8,8.8,0,0,1,7.044,14.088l-3.522,3.522L41.312,7.211l3.522-3.522a8.765,8.765,0,0,1,5.283-1.761ZM6.093,42.431,2.571,58.28,18.42,54.758,51,22.179,38.671,9.852ZM41.95,21.936,17.3,46.59,14.26,43.555,38.914,18.9l3.035,3.035Z" transform="translate(-73.873 591.106)"/><path class="c" d="M65.577,46.288v-36a4.514,4.514,0,0,0-4.5-4.5h-45a4.514,4.514,0,0,0-4.5,4.5v36h-9v13.5H74.578v-13.5Zm-18,9h-18v-4.5h18Zm13.5-9h-45v-36l.008-.008H61.068l.008.008Z" transform="translate(-81.404 701.108)"/><path class="c" d="M75.6,19.105,66.137,2.991a3.827,3.827,0,0,0-5.173-1.368l-8.206,4.65,7.1,12.095a.923.923,0,0,1-.345,1.272l-1.641.928a.951.951,0,0,1-1.3-.345L49.475,8.14l-6.565,3.722L46.229,17.5a.923.923,0,0,1-.345,1.272l-1.641.928a.951.951,0,0,1-1.3-.345L39.628,13.73l-6.565,3.722,7.112,12.095a.926.926,0,0,1-.345,1.272l-1.641.928a.951.951,0,0,1-1.3-.345l-7.1-12.095L23.229,23.03l3.318,5.637a.923.923,0,0,1-.345,1.272l-1.641.928a.951.951,0,0,1-1.3-.345l-3.318-5.649L13.382,28.6l7.1,12.095a.926.926,0,0,1-.345,1.272L18.5,42.89a.951.951,0,0,1-1.3-.345L10.1,30.486l-8.206,4.65A3.7,3.7,0,0,0,.5,40.226L9.969,56.352a3.827,3.827,0,0,0,5.173,1.368L74.223,24.2A3.692,3.692,0,0,0,75.6,19.105Z" transform="translate(-191.796 703.425)"/><path class="c" d="M914.015,540.291h-42.5a11.653,11.653,0,0,0-11.638,11.64v47.225a3.79,3.79,0,0,0,.078.761,11.619,11.619,0,0,0,11.56,10.875h42.5a3.765,3.765,0,0,0,3.766-3.766v-62.97A3.764,3.764,0,0,0,914.015,540.291Zm-42.5,7.531H910.25v39.7H871.512a11.525,11.525,0,0,0-4.107.786V551.931A4.112,4.112,0,0,1,871.512,547.822Zm0,55.439a4.106,4.106,0,1,1,0-8.211H910.25v8.211Z" transform="translate(-1044.646 44.709)"/></g><g transform="translate(191.799 6)"><path class="c" d="M50.117,1.928a8.8,8.8,0,0,1,7.044,14.088l-3.522,3.522L41.312,7.211l3.522-3.522a8.765,8.765,0,0,1,5.283-1.761ZM6.093,42.431,2.571,58.28,18.42,54.758,51,22.179,38.671,9.852ZM41.95,21.936,17.3,46.59,14.26,43.555,38.914,18.9l3.035,3.035Z" transform="translate(-73.873 591.106)"/><path class="c" d="M65.577,46.288v-36a4.514,4.514,0,0,0-4.5-4.5h-45a4.514,4.514,0,0,0-4.5,4.5v36h-9v13.5H74.578v-13.5Zm-18,9h-18v-4.5h18Zm13.5-9h-45v-36l.008-.008H61.068l.008.008Z" transform="translate(-81.404 701.108)"/><path class="c" d="M75.6,19.105,66.137,2.991a3.827,3.827,0,0,0-5.173-1.368l-8.206,4.65,7.1,12.095a.923.923,0,0,1-.345,1.272l-1.641.928a.951.951,0,0,1-1.3-.345L49.475,8.14l-6.565,3.722L46.229,17.5a.923.923,0,0,1-.345,1.272l-1.641.928a.951.951,0,0,1-1.3-.345L39.628,13.73l-6.565,3.722,7.112,12.095a.926.926,0,0,1-.345,1.272l-1.641.928a.951.951,0,0,1-1.3-.345l-7.1-12.095L23.229,23.03l3.318,5.637a.923.923,0,0,1-.345,1.272l-1.641.928a.951.951,0,0,1-1.3-.345l-3.318-5.649L13.382,28.6l7.1,12.095a.926.926,0,0,1-.345,1.272L18.5,42.89a.951.951,0,0,1-1.3-.345L10.1,30.486l-8.206,4.65A3.7,3.7,0,0,0,.5,40.226L9.969,56.352a3.827,3.827,0,0,0,5.173,1.368L74.223,24.2A3.692,3.692,0,0,0,75.6,19.105Z" transform="translate(-191.796 703.425)"/><path class="c" d="M914.015,540.291h-42.5a11.653,11.653,0,0,0-11.638,11.64v47.225a3.79,3.79,0,0,0,.078.761,11.619,11.619,0,0,0,11.56,10.875h42.5a3.765,3.765,0,0,0,3.766-3.766v-62.97A3.764,3.764,0,0,0,914.015,540.291Zm-42.5,7.531H910.25v39.7H871.512a11.525,11.525,0,0,0-4.107.786V551.931A4.112,4.112,0,0,1,871.512,547.822Zm0,55.439a4.106,4.106,0,1,1,0-8.211H910.25v8.211Z" transform="translate(-1044.646 44.709)"/></g><g transform="translate(396.799 6)"><path class="c" d="M50.117,1.928a8.8,8.8,0,0,1,7.044,14.088l-3.522,3.522L41.312,7.211l3.522-3.522a8.765,8.765,0,0,1,5.283-1.761ZM6.093,42.431,2.571,58.28,18.42,54.758,51,22.179,38.671,9.852ZM41.95,21.936,17.3,46.59,14.26,43.555,38.914,18.9l3.035,3.035Z" transform="translate(-73.873 591.106)"/><path class="c" d="M65.577,46.288v-36a4.514,4.514,0,0,0-4.5-4.5h-45a4.514,4.514,0,0,0-4.5,4.5v36h-9v13.5H74.578v-13.5Zm-18,9h-18v-4.5h18Zm13.5-9h-45v-36l.008-.008H61.068l.008.008Z" transform="translate(-81.404 701.108)"/><path class="c" d="M75.6,19.105,66.137,2.991a3.827,3.827,0,0,0-5.173-1.368l-8.206,4.65,7.1,12.095a.923.923,0,0,1-.345,1.272l-1.641.928a.951.951,0,0,1-1.3-.345L49.475,8.14l-6.565,3.722L46.229,17.5a.923.923,0,0,1-.345,1.272l-1.641.928a.951.951,0,0,1-1.3-.345L39.628,13.73l-6.565,3.722,7.112,12.095a.926.926,0,0,1-.345,1.272l-1.641.928a.951.951,0,0,1-1.3-.345l-7.1-12.095L23.229,23.03l3.318,5.637a.923.923,0,0,1-.345,1.272l-1.641.928a.951.951,0,0,1-1.3-.345l-3.318-5.649L13.382,28.6l7.1,12.095a.926.926,0,0,1-.345,1.272L18.5,42.89a.951.951,0,0,1-1.3-.345L10.1,30.486l-8.206,4.65A3.7,3.7,0,0,0,.5,40.226L9.969,56.352a3.827,3.827,0,0,0,5.173,1.368L74.223,24.2A3.692,3.692,0,0,0,75.6,19.105Z" transform="translate(-191.796 703.425)"/><path class="c" d="M914.015,540.291h-42.5a11.653,11.653,0,0,0-11.638,11.64v47.225a3.79,3.79,0,0,0,.078.761,11.619,11.619,0,0,0,11.56,10.875h42.5a3.765,3.765,0,0,0,3.766-3.766v-62.97A3.764,3.764,0,0,0,914.015,540.291Zm-42.5,7.531H910.25v39.7H871.512a11.525,11.525,0,0,0-4.107.786V551.931A4.112,4.112,0,0,1,871.512,547.822Zm0,55.439a4.106,4.106,0,1,1,0-8.211H910.25v8.211Z" transform="translate(-1044.646 44.709)"/></g></g></svg>