<svg xmlns="http://www.w3.org/2000/svg" width="50.448" height="30.28" viewBox="0 0 50.448 30.28"><defs><style>.a{fill:#f8f8f8;}</style></defs><path class="a" d="M34.266,4.5H27.494a2.521,2.521,0,0,0-1.7.662l-7.749,7.094c-.008.008-.016.024-.024.032a3.136,3.136,0,0,0-.166,4.414,3.288,3.288,0,0,0,4.422.213c.008-.008.024-.008.032-.016l6.3-5.77a1.261,1.261,0,0,1,1.7,1.86l-2.057,1.884,11.477,9.317a5.679,5.679,0,0,1,.623.607V9.545l-4.3-4.3A2.5,2.5,0,0,0,34.266,4.5Zm8.616,5.061V27.21A2.52,2.52,0,0,0,45.4,29.732h5.045V9.561ZM46.665,27.21a1.261,1.261,0,1,1,1.261-1.261A1.265,1.265,0,0,1,46.665,27.21ZM0,29.724H5.045A2.52,2.52,0,0,0,7.567,27.2V9.561H0Zm3.784-5.037a1.261,1.261,0,1,1-1.261,1.261A1.265,1.265,0,0,1,3.784,24.687Zm34.36,1.466L26.375,16.6,24.01,18.767a5.674,5.674,0,0,1-7.67-8.363l6.448-5.9H16.183a2.518,2.518,0,0,0-1.781.741l-4.312,4.3V27.194h1.443l7.134,6.456a5.044,5.044,0,0,0,7.094-.733l.016-.016,1.411,1.222A2.929,2.929,0,0,0,31.31,33.7l2.475-3.043L34.21,31a2.518,2.518,0,0,0,3.547-.37l.749-.922a2.527,2.527,0,0,0-.363-3.555Z" transform="translate(0 -4.5)"/></svg>