<svg xmlns="http://www.w3.org/2000/svg" width="25.5" height="25.5" viewBox="0 0 25.5 25.5"><defs><style>.a{fill:#162918;}</style></defs><path class="a" d="M22.768,2.25H2.732A2.732,2.732,0,0,0,0,4.982V25.018A2.732,2.732,0,0,0,2.732,27.75H22.768A2.732,2.732,0,0,0,25.5,25.018V4.982A2.732,2.732,0,0,0,22.768,2.25Zm-.933,17.5-.854,3.7a.854.854,0,0,1-.832.662A16.508,16.508,0,0,1,3.643,7.6.894.894,0,0,1,4.3,6.769L8,5.915A1.038,1.038,0,0,1,8.2,5.893a.926.926,0,0,1,.785.517l1.708,3.984a1.019,1.019,0,0,1,.069.336.968.968,0,0,1-.313.661L8.288,13.156a13.2,13.2,0,0,0,6.306,6.306l1.765-2.157a.968.968,0,0,1,.661-.313,1.016,1.016,0,0,1,.336.069l3.984,1.708a.925.925,0,0,1,.517.785.991.991,0,0,1-.022.192Z" transform="translate(0 -2.25)"/></svg>