<svg xmlns="http://www.w3.org/2000/svg" width="40.968" height="54.625" viewBox="0 0 40.968 54.625"><defs><style>.a{fill:#f8f8f8;}</style></defs><path class="a" d="M10.361,38.688c-.927-.927-.444-.666-2.68-1.264A7.7,7.7,0,0,1,4.968,36L.128,47.871a1.707,1.707,0,0,0,1.646,2.35L7.4,50.006l3.866,4.084a1.707,1.707,0,0,0,2.82-.529l5.553-13.615a7.656,7.656,0,0,1-9.273-1.258ZM40.84,47.871,36,36a7.68,7.68,0,0,1-2.713,1.421c-2.248.6-1.755.339-2.68,1.264a7.658,7.658,0,0,1-9.274,1.258l5.553,13.615a1.707,1.707,0,0,0,2.82.529l3.867-4.084,5.621.214a1.708,1.708,0,0,0,1.646-2.35Zm-12.781-11.6c1.63-1.659,1.817-1.516,4.138-2.149a4.336,4.336,0,0,0,3.037-3.092c.8-3.03.591-2.664,2.769-4.881a4.426,4.426,0,0,0,1.112-4.223c-.8-3.028-.8-2.605,0-5.636A4.426,4.426,0,0,0,38,12.071c-2.177-2.217-1.971-1.852-2.769-4.881A4.336,4.336,0,0,0,32.2,4.1c-2.974-.812-2.616-.6-4.8-2.818A4.245,4.245,0,0,0,23.252.149c-2.973.811-2.558.812-5.537,0a4.243,4.243,0,0,0-4.149,1.132C11.389,3.5,11.747,3.286,8.772,4.1A4.336,4.336,0,0,0,5.734,7.19c-.8,3.029-.591,2.664-2.769,4.881a4.423,4.423,0,0,0-1.112,4.223c.8,3.026.8,2.6,0,5.635a4.428,4.428,0,0,0,1.112,4.224C5.143,28.369,4.936,28,5.734,31.033a4.336,4.336,0,0,0,3.037,3.092c2.388.651,2.566.548,4.137,2.149a4.24,4.24,0,0,0,5.307.621,4.233,4.233,0,0,1,4.537,0A4.239,4.239,0,0,0,28.059,36.274Zm-17.64-17.5A10.066,10.066,0,1,1,20.484,29.017,10.156,10.156,0,0,1,10.419,18.773Z" transform="translate(0 0.001)"/></svg>