<svg xmlns="http://www.w3.org/2000/svg" width="31.058" height="20.965" viewBox="0 0 31.058 20.965"><defs><style>.a{fill:#162918;}</style></defs><path class="a" d="M.072,23.176V5.925q0-.03.09-.569l10.153,8.686L.192,23.775a2.538,2.538,0,0,1-.12-.6ZM1.42,4.158a1.291,1.291,0,0,1,.509-.09H29.274a1.7,1.7,0,0,1,.539.09L19.63,12.873l-1.348,1.078-2.666,2.186-2.666-2.186L11.6,12.873Zm.03,20.786L11.663,15.15l3.953,3.2,3.953-3.2,10.213,9.794a1.438,1.438,0,0,1-.509.09H1.929a1.356,1.356,0,0,1-.479-.09Zm19.468-10.9L31.041,5.356a1.788,1.788,0,0,1,.09.569V23.176a2.3,2.3,0,0,1-.09.6Z" transform="translate(-0.072 -4.068)"/></svg>