<svg xmlns="http://www.w3.org/2000/svg" width="44.09" height="44.09" viewBox="0 0 44.09 44.09"><defs><style>.a{fill:#fff;}</style></defs><path class="a" d="M43.686,7.293l-3.73-3.73a2.756,2.756,0,0,0-1.949-.807H24.8V1.378A1.377,1.377,0,0,0,23.423,0H20.667a1.377,1.377,0,0,0-1.378,1.378V2.756H4.822A2.067,2.067,0,0,0,2.756,4.822v6.889a2.067,2.067,0,0,0,2.067,2.067H38.008a2.757,2.757,0,0,0,1.949-.807l3.73-3.73A1.378,1.378,0,0,0,43.686,7.293Zm-24.4,35.42a1.377,1.377,0,0,0,1.378,1.378h2.756A1.377,1.377,0,0,0,24.8,42.713V33.068H19.289ZM39.268,19.29H24.8V16.534H19.289V19.29H6.082a2.757,2.757,0,0,0-1.949.807L.4,23.827a1.378,1.378,0,0,0,0,1.949l3.73,3.73a2.756,2.756,0,0,0,1.949.807H39.268a2.067,2.067,0,0,0,2.067-2.067V21.356A2.067,2.067,0,0,0,39.268,19.29Z" transform="translate(0)"/></svg>