<svg xmlns="http://www.w3.org/2000/svg" xmlns:xlink="http://www.w3.org/1999/xlink" width="303.929" height="211.921" viewBox="0 0 303.929 211.921"><defs><style>.a,.b{fill:#297b2e;}.a,.e,.g,.l{opacity:0.1;}.c,.g{fill:#444053;}.d{fill:#3f3d56;}.f{fill:#fff;}.h{fill:url(#a);}.i{fill:#a1616a;}.j{opacity:0.15;}.k{fill:#fbbebe;}.m{fill:#3acc6c;}</style><linearGradient id="a" x1="0.5" y1="1" x2="0.5" gradientUnits="objectBoundingBox"><stop offset="0" stop-color="gray" stop-opacity="0.251"/><stop offset="0.54" stop-color="gray" stop-opacity="0.122"/><stop offset="1" stop-color="gray" stop-opacity="0.102"/></linearGradient></defs><g transform="translate(0 0.005)"><path class="a" d="M212.7,90.154c-19.478-.676-38.029-6.966-55.745-13.845s-35.262-14.5-54.277-18.147c-12.226-2.346-26.212-2.677-36.065,3.879-9.482,6.308-12.544,17.2-14.193,27.305-1.239,7.6-1.966,15.6,1.428,22.723,2.357,4.94,6.543,9.094,9.428,13.826,10.071,16.471,2.963,36.779-7.962,52.862C50.2,186.3,44.254,193.5,40.305,201.527s-5.77,17.231-2.3,25.436c3.426,8.119,11.583,14.217,20.437,18.508,17.95,8.7,39.119,11.192,59.761,12.6,45.695,3.125,91.634,1.772,137.45.417,16.954-.5,33.985-1.01,50.664-3.634,9.263-1.455,18.826-3.771,25.552-9.344,8.536-7.082,10.653-19.074,4.932-27.954-9.595-14.9-36.124-18.586-42.829-34.581-3.693-8.8.1-18.6,5.465-26.758,11.507-17.509,30.8-32.862,31.812-52.873.7-13.737-8.574-27.507-22.912-34.01-15.03-6.815-35.868-5.958-46.958,5.325C249.964,86.28,229.9,90.749,212.7,90.154Z" transform="translate(-36.079 -56.63)"/><path class="b" d="M926.7,737.447a8.3,8.3,0,0,0-3.391-.361,1.091,1.091,0,0,0,.2,2.171,10,10,0,0,0,2.063-.38Z" transform="translate(-683.565 -553.769)"/><path class="b" d="M936.34,738.61a8.292,8.292,0,0,1,.83,3.31,1.092,1.092,0,0,1-2.179.1,10.121,10.121,0,0,1,.092-2.1Z" transform="translate(-692.78 -554.914)"/><path class="b" d="M934.892,717.7s-.681-2.139-4.848-1.309a1.708,1.708,0,0,0,.054,3.364h.081A4.237,4.237,0,0,0,934.892,717.7Z" transform="translate(-688.164 -538.541)"/><path class="b" d="M949.687,721.3s2.238.175,2.379,4.418a1.708,1.708,0,0,1-3.286.716.236.236,0,0,0-.03-.078A4.249,4.249,0,0,1,949.687,721.3Z" transform="translate(-702.526 -542.267)"/><path class="b" d="M948.182,691.565a4.453,4.453,0,0,0-3.006-3.356,2.337,2.337,0,0,0-1.554,4.4,8.8,8.8,0,0,0,3.566.517Z" transform="translate(-698.031 -518)"/><path class="b" d="M958.362,665.951a5.852,5.852,0,0,0-4.094-3.232c-3.133-.574-4.081,4.132-.986,4.884a10.329,10.329,0,0,0,4.218.035Z" transform="translate(-704.771 -499.43)"/><path class="b" d="M966.42,640.944a6.686,6.686,0,0,0-4.31-2.963,2.164,2.164,0,0,0-.956,4.216,10.059,10.059,0,0,0,5.048-.07Z" transform="translate(-710.752 -481.359)"/><path class="b" d="M974.424,615.57a6.951,6.951,0,0,0-3.771-3c-2.694-.827-4.024,3.256-1.347,4.145a7.669,7.669,0,0,0,4.886-.019Z" transform="translate(-716.798 -462.746)"/><path class="b" d="M977.229,589.7a9.354,9.354,0,0,0-3.273-3.863c-2.446-1.49-4.776,2.155-2.424,3.8a6.823,6.823,0,0,0,5.473,1.247Z" transform="translate(-718.779 -443.039)"/><path class="b" d="M978.23,562.989a9.162,9.162,0,0,0-3.467-3.771A2.321,2.321,0,0,0,972.4,563.2a5.958,5.958,0,0,0,5.613.908Z" transform="translate(-719.373 -423.633)"/><path class="b" d="M979.138,538.131a16.518,16.518,0,0,0-3.232-3.677,1.8,1.8,0,0,0-2.351,2.723c1.56,1.43,3.5,2.632,5.508,2.535Z" transform="translate(-720.534 -405.439)"/><path class="b" d="M976.513,511.529a24.214,24.214,0,0,0-3.652-4.719,1.515,1.515,0,0,0-2.155,2.125,14.015,14.015,0,0,0,5.977,4.024Z" transform="translate(-718.585 -385.231)"/><path class="b" d="M973.553,486.575a21.586,21.586,0,0,0-2.917-3.612,1.522,1.522,0,0,0-2.177,2.125,11.134,11.134,0,0,0,5.46,3.432Z" transform="translate(-716.931 -367.798)"/><path class="b" d="M970.762,461.434a34.413,34.413,0,0,0-2.8-3.332,1.26,1.26,0,0,0-1.864,1.694,7.719,7.719,0,0,0,4.687,2.917Z" transform="translate(-715.283 -349.674)"/><path class="b" d="M967.152,434.122a35.091,35.091,0,0,0-2.694-4.431,1.1,1.1,0,0,0-1.8,1.266,9.818,9.818,0,0,0,4.38,3.833Z" transform="translate(-712.858 -328.87)"/><path class="b" d="M966.137,407.327s-.666-1.129-1.616-2.44a1.157,1.157,0,0,0-1.918,1.293c.916,1.4,2.063,2.6,3.4,2.836Z" transform="translate(-712.821 -310.724)"/><path class="b" d="M967.483,380.627l-.843-4.215a.887.887,0,0,0-1.751.269,9.515,9.515,0,0,0,2.767,6Z" transform="translate(-714.633 -289.756)"/><path class="b" d="M972.09,348.148h0a.827.827,0,0,0-1.578.452,21.32,21.32,0,0,0,.851,3.448Z" transform="translate(-718.738 -269.258)"/><path class="b" d="M962.867,700.081a4.453,4.453,0,0,1,4.407.948,2.339,2.339,0,0,1-3.057,3.531A8.855,8.855,0,0,1,962,701.719Z" transform="translate(-712.527 -526.599)"/><path class="b" d="M975.691,673.6a5.849,5.849,0,0,1,5.026,1.368c2.325,2.177-.889,5.74-3.337,3.7a10.314,10.314,0,0,1-2.54-3.37Z" transform="translate(-721.909 -507.338)"/><path class="b" d="M985.076,647.47a6.688,6.688,0,0,1,5.118-1.137,2.164,2.164,0,0,1-.69,4.267,10.077,10.077,0,0,1-4.655-1.953Z" transform="translate(-729.223 -487.41)"/><path class="b" d="M992.178,620.368a6.943,6.943,0,0,1,4.612-1.376c2.818.245,2.516,4.525-.3,4.347a7.652,7.652,0,0,1-4.525-1.845Z" transform="translate(-734.417 -467.506)"/><path class="b" d="M995.2,592.5a9.381,9.381,0,0,1,3.881-3.249c2.648-1.048,4.348,2.92,1.775,4.14a6.828,6.828,0,0,1-5.633.31Z" transform="translate(-736.785 -445.657)"/><path class="b" d="M995.55,564.266a9.127,9.127,0,0,1,3.927-3.276,2.321,2.321,0,0,1,1.826,4.256,5.956,5.956,0,0,1-5.683.167Z" transform="translate(-737.04 -425.02)"/><path class="b" d="M993.67,535.5a16.517,16.517,0,0,1,2.37-4.283,1.8,1.8,0,0,1,2.88,2.155c-1.218,1.732-2.845,3.319-4.849,3.655Z" transform="translate(-735.667 -402.876)"/><path class="b" d="M992.9,508.333a24.1,24.1,0,0,1,2.187-5.565,1.51,1.51,0,0,1,2.651,1.441,13.964,13.964,0,0,1-4.617,5.535Z" transform="translate(-735.104 -382.046)"/><path class="b" d="M987.1,482.947a21.613,21.613,0,0,1,2.225-4.248,1.518,1.518,0,0,1,2.553,1.638,11.186,11.186,0,0,1-4.749,4.579Z" transform="translate(-730.866 -364.521)"/><path class="b" d="M982.48,457.757a34.63,34.63,0,0,1,1.166-4.194,1.26,1.26,0,0,1,2.4.765,7.734,7.734,0,0,1-3.049,4.6Z" transform="translate(-727.491 -346.035)"/><path class="b" d="M979.27,431.721a34.966,34.966,0,0,1,1.616-4.932,1.1,1.1,0,0,1,2.047.822,9.817,9.817,0,0,1-3.388,4.73Z" transform="translate(-725.146 -326.596)"/><path class="b" d="M974.46,407.521s.253-1.285.714-2.839a1.157,1.157,0,0,1,2.239.582c-.393,1.616-1.078,3.138-2.263,3.806Z" transform="translate(-721.631 -310.326)"/><path class="b" d="M974.287,380.375l1.465-4.04a.887.887,0,0,1,1.689.539,9.451,9.451,0,0,1-3.631,5.522Z" transform="translate(-721.156 -289.79)"/><path class="b" d="M975.762,349.332s.229-.183.579-.471a.726.726,0,0,1,.973,1.078,13.74,13.74,0,0,1-3.984,2.527Z" transform="translate(-720.806 -270.019)"/><path class="b" d="M981.189,326.138a53.025,53.025,0,0,1,2.923-5.2.539.539,0,0,0-.873-.617,15.623,15.623,0,0,0-2.349,5.444Z" transform="translate(-726.329 -249.166)"/><path class="c" d="M973.851,361.859l.312-.032c-1.347-12.555-.779-20.3,1.576-21.8l-.17-.269C973.075,341.357,972.482,349,973.851,361.859Z" transform="translate(-720.661 -263.499)"/><path class="c" d="M980.177,448.985l.466-.07c-.175-1.161-.377-2.341-.6-3.5-1.961-10.19-3.485-19.61-4.248-26.764l-.342-.269c.765,7.168,2.155,16.913,4.13,27.117C979.8,446.65,980,447.827,980.177,448.985Z" transform="translate(-722.354 -320.942)"/><path class="c" d="M910.97,592.739a61.125,61.125,0,0,0,13.546-16.076,67.882,67.882,0,0,0,7.973-19.876c1.991-8.757,2.047-18.955.612-28.507l-.42.337c3.232,21.436-2.933,38.08-8.687,47.7a60.379,60.379,0,0,1-13.4,15.919Z" transform="translate(-674.965 -401.239)"/><ellipse class="b" cx="17.926" cy="3.448" rx="17.926" ry="3.448" transform="translate(34.336 184.555)"/><ellipse class="d" cx="2.088" cy="2.731" rx="2.088" ry="2.731" transform="translate(49.872 183.806)"/><ellipse class="d" cx="2.088" cy="2.731" rx="2.088" ry="2.731" transform="translate(49.872 180.466)"/><ellipse class="d" cx="2.088" cy="2.731" rx="2.088" ry="2.731" transform="translate(49.872 177.129)"/><ellipse class="d" cx="2.088" cy="2.731" rx="2.088" ry="2.731" transform="translate(49.872 173.789)"/><ellipse class="d" cx="2.088" cy="2.731" rx="2.088" ry="2.731" transform="translate(49.872 170.449)"/><ellipse class="d" cx="2.088" cy="2.731" rx="2.088" ry="2.731" transform="translate(49.872 167.111)"/><ellipse class="d" cx="2.088" cy="2.731" rx="2.088" ry="2.731" transform="translate(49.872 163.771)"/><path class="b" d="M209.266,546.029a9.823,9.823,0,0,0,.778-1.145l-5.484-.9,5.926.043a10,10,0,0,0,.191-7.919l-7.957,4.127,7.337-5.387a10,10,0,1,0-16.512,11.187,10.1,10.1,0,0,0-1.139,1.823l7.119,3.7-7.585-2.548a10,10,0,0,0,1.616,9.387,10,10,0,1,0,15.715,0,9.99,9.99,0,0,0,0-12.361Z" transform="translate(-149.495 -402.379)"/><path class="e" d="M191.452,612.49a9.966,9.966,0,0,0,2.139,6.179,10,10,0,1,0,15.715,0C210.647,616.969,191.452,611.366,191.452,612.49Z" transform="translate(-149.534 -462.658)"/><path class="f" d="M267.81,317.87V436.85A4.154,4.154,0,0,0,271.964,441H442.7a4.154,4.154,0,0,0,4.154-4.154V317.87Z" transform="translate(-205.326 -247.506)"/><rect class="e" width="42.802" height="25.123" rx="8.65" transform="translate(76.652 81.015)"/><rect class="e" width="42.802" height="25.123" rx="8.65" transform="translate(130.608 81.015)"/><rect class="b" width="41.598" height="24.415" rx="8.65" transform="translate(77.253 81.368)"/><rect class="g" width="41.598" height="24.415" rx="8.65" transform="translate(226.763 105.783) rotate(180)"/><rect class="b" width="41.598" height="24.415" rx="8.65" transform="translate(172.807 105.783) rotate(180)"/><rect class="g" width="41.598" height="24.415" rx="8.65" transform="translate(77.253 116.635)"/><rect class="g" width="41.598" height="24.415" rx="8.65" transform="translate(226.763 141.05) rotate(180)"/><rect class="g" width="41.598" height="24.415" rx="8.65" transform="translate(172.807 141.05) rotate(180)"/><rect class="g" width="41.598" height="24.415" rx="8.65" transform="translate(77.253 151.903)"/><rect class="g" width="41.598" height="24.415" rx="8.65" transform="translate(226.763 176.321) rotate(180)"/><rect class="g" width="41.598" height="24.415" rx="8.65" transform="translate(172.807 176.321) rotate(180)"/><path class="b" d="M267.81,228.586V250.2H446.858V228.586a4.154,4.154,0,0,0-4.154-4.156H271.964A4.154,4.154,0,0,0,267.81,228.586Zm44.31,6.395a3.316,3.316,0,1,1,3.316-3.316A3.316,3.316,0,0,1,312.12,234.981Zm90.428,0a3.322,3.322,0,1,0-.005,0Z" transform="translate(-205.326 -179.235)"/><path class="e" d="M421.672,236.74a3.919,3.919,0,1,0,3.917,3.918,3.919,3.919,0,0,0-3.917-3.918Zm0,7.235a3.316,3.316,0,1,1,3.316-3.316A3.316,3.316,0,0,1,421.672,243.975Z" transform="translate(-314.878 -188.229)"/><path class="e" d="M757.369,236.74a3.919,3.919,0,1,0,3.919,3.919A3.919,3.919,0,0,0,757.369,236.74Zm0,7.235a3.316,3.316,0,1,1,3.316-3.316A3.316,3.316,0,0,1,757.369,243.975Z" transform="translate(-560.153 -188.229)"/><circle class="a" cx="4.113" cy="4.113" r="4.113" transform="translate(274.165 108.999)"/><circle class="a" cx="6.896" cy="6.896" r="6.896" transform="translate(286.098 87.873)"/><circle class="a" cx="6.896" cy="6.896" r="6.896" transform="translate(276.969 121.333)"/><circle class="a" cx="9.764" cy="9.764" r="9.764" transform="translate(0 83.313)"/><path class="h" d="M830.637,506.133a8.612,8.612,0,0,0-2-1.123.411.411,0,0,0-.175-.046,30.752,30.752,0,0,1-4.121-3.55c.269-.216.517-.426.781-.633-1.616-.77-2.513-2.535-3.386-4.127a40.706,40.706,0,0,0-8.98-11.189c-.089-.342-.609-.269-.886-.49a.711.711,0,0,1-.2-.687c.043-.248.156-.477.218-.719a4.853,4.853,0,0,0-.046-1.751,2.145,2.145,0,0,1,.35-1.673c.124-.143.283-.253.4-.4a1.52,1.52,0,0,0,.269-1.209,4.294,4.294,0,0,0-.269-1.226q1.98-5.387,3.957-10.793a25.453,25.453,0,0,0,1.95-7.768,9.285,9.285,0,0,0-1.783-6.039c.237-.056.474-.116.709-.183-1.541-2.042-1.708-4.746-1.748-7.319q-.033-1.923-.132-3.849c.447.2.9.372,1.363.523l.431.132a14.855,14.855,0,0,0,2.136.458c.318.046.641.081.962.1h0q-.695-1.74-1.387-3.486a4.759,4.759,0,0,1-.431-1.635h0v-.108a.947.947,0,0,1,.013-.194,2.124,2.124,0,0,1,.105-.453,1.99,1.99,0,0,1,.083-.213,3.77,3.77,0,0,1,.345-.606c.1-.148.2-.291.313-.436a5.958,5.958,0,0,0,.967-1.565,2.963,2.963,0,0,0,.148-.892,4.4,4.4,0,0,0-.081-.916c-.038-.2-.086-.4-.14-.6h0c-.035-.121-.073-.242-.11-.361l-.032-.1c-.03-.092-.059-.18-.091-.269l-.032-.092c-.035-.1-.07-.191-.108-.288l-.022-.056c-.515-1.323-1.2-2.583-1.616-3.944a10.384,10.384,0,0,1-.269-1.1c-.019-.094-.032-.191-.049-.285s-.024-.162-.035-.242-.024-.189-.035-.283l-.024-.269c0-.086-.013-.172-.019-.269,0-.164-.016-.329-.019-.493v-.749c0-.124.019-.248.03-.369a.543.543,0,0,1,.019-.175q.027-.269.073-.539h0c.027-.159.057-.321.089-.482a6.453,6.453,0,0,0,.151-1.347,1.349,1.349,0,0,0-.019-.269c-.019-.094-.022-.145-.035-.215a.5.5,0,0,1,0-.065.707.707,0,0,0-.035-.145.269.269,0,0,0-.022-.067c-.008-.022-.03-.094-.046-.14s-.014-.04-.022-.062-.038-.1-.059-.143l-.019-.048c-.027-.059-.056-.116-.086-.172h0a3.967,3.967,0,0,0-.361-.56h0c-.886-1.164-2.36-2.05-3.171-3.332a7.42,7.42,0,0,1-.908-2.694c-.04-.216-.075-.431-.113-.644s-.07-.423-.108-.633c-.024-.129-.048-.269-.075-.388l-.016-.084c-.021-.1-.043-.207-.067-.31l-.016-.073c-.024-.108-.048-.216-.075-.323l-.016-.056c-.027-.113-.056-.226-.086-.339a.213.213,0,0,1,0-.04c-.032-.118-.067-.237-.1-.356v-.024c-.038-.124-.076-.245-.116-.366h0c-.04-.124-.084-.25-.129-.374h0c-.048-.127-.094-.253-.145-.377h0a9.962,9.962,0,0,0-1.363-2.424,6.433,6.433,0,0,0-5.118-2.645,10.138,10.138,0,0,0-3.079.781l-2.594.956L801,403.8a6.2,6.2,0,0,0-2.206.471,2.143,2.143,0,0,0-1.28,1.754c-.013.445.162.886.105,1.328-.094.73-.765,1.226-1.112,1.872a2.407,2.407,0,0,0-.269,1.266v.172a.221.221,0,0,0,0,.043v.086c-1.077-.469-2.155-.956-3.232-1.479a11.43,11.43,0,0,1-4.692-3.564c-.356-.539-.63-1.121-.983-1.654a13.086,13.086,0,0,0-1.347-1.616l-3.305-3.577c-.253.477.073,1.04.329,1.514a6.509,6.509,0,0,1,.611,1.578.749.749,0,0,1-.016.552,1.078,1.078,0,0,1-.453.321,1.616,1.616,0,0,0-.681,1.85A2.047,2.047,0,0,0,784,406.046a2.769,2.769,0,0,1,.681.167c.4.2.587.655.873,1a3.917,3.917,0,0,0,2.136,1.064c1.223,1.411,2.494,2.764,3.717,4.175a26.767,26.767,0,0,0,6.158,5.754c.25.151.506.291.765.42a.424.424,0,0,1-.013.129,1.459,1.459,0,0,0,.116.943,1.48,1.48,0,0,0,1.056.514l1.826.326a6.222,6.222,0,0,1-.089.706c-.024.143-.054.283-.081.426h0l-.032.183v.027a.536.536,0,0,1-.019.148c-.019.051,0,.035,0,.051v.358a3.431,3.431,0,0,0,1.016,1.856l.256.31a4.311,4.311,0,0,0-.832,1.745,5.93,5.93,0,0,0-.119,1.215,2.112,2.112,0,0,0-.539.84,3.841,3.841,0,0,0-.14,1.36v.539a4.527,4.527,0,0,0,.312,1.885c.024.048.051.092.075.137a26.2,26.2,0,0,1-1.56,2.155,4.676,4.676,0,0,0,.428,5.355c.369.426.843.835.886,1.4a5.246,5.246,0,0,1-.075.765,5.727,5.727,0,0,0,.388,1.775,1.834,1.834,0,0,1-.148,1.471,2.155,2.155,0,0,0-.369,1.411,9.428,9.428,0,0,1-.232,2.3c-.024.331,0,.668-.03,1a5.638,5.638,0,0,1-.2.937.389.389,0,0,1-.027.1c-.665.294-1.326.6-1.961.951a1.723,1.723,0,0,0-.808.744,1.906,1.906,0,0,0-.043,1.024l.574,3.992-.1-.043q.067.98.14,1.969a2.657,2.657,0,0,0,.377,1.425,3.692,3.692,0,0,1,.407.52c.226.458-.043.991-.242,1.46s-.269,1.134.17,1.387a3.6,3.6,0,0,0,.735.393c-.539,2.246-.043,4.6.458,6.855q.574,2.586,1.15,5.166a12.515,12.515,0,0,1,.253,2.22v.323a12.442,12.442,0,0,0,.539,3.022c.6,2.015.024,4.434.213,6.629a19.661,19.661,0,0,0,.63,3.122,96.2,96.2,0,0,1,2.909,15.526,3.9,3.9,0,0,0,1.864,1.3c-.054.652.019,1.4,0,1.778a3.074,3.074,0,0,1-.146.927,2.227,2.227,0,0,1-1.409,1.2c-.189.065-.38.116-.574.162l.216-.183a4.812,4.812,0,0,0-3.585.63,1.42,1.42,0,0,0-.708.835,1.346,1.346,0,0,0,.248.967,4.41,4.41,0,0,0,2.492,1.77,13.069,13.069,0,0,0,3.071.428l1.9.11a.523.523,0,0,0,.124.676,1.331,1.331,0,0,0,.7.253,8.889,8.889,0,0,0,2.346.035.919.919,0,0,0,.539-.194.348.348,0,0,0,0-.514.568.568,0,0,0,.517-.377,1.528,1.528,0,0,0,.07-.681,7.314,7.314,0,0,0-.59-2.963.752.752,0,0,0-.832-.367,32.32,32.32,0,0,1-.539-4.778,11.679,11.679,0,0,0,1.385-.625c-1.323-2.136-1.347-4.849-.943-7.332a22.213,22.213,0,0,0,.353-2.373,7.871,7.871,0,0,0-1.032-4.7,16.827,16.827,0,0,1,4.2,3.8c1.861,2.424,3,5.36,5.277,7.38q.45-.439.91-.873.722,1.223,1.366,2.5a9.49,9.49,0,0,1,.792,1.969,9.113,9.113,0,0,1,.073,3.176q-.094.84-.229,1.673a4.536,4.536,0,0,1-.164.7.482.482,0,0,0-.051-.21c-.143-.25-.539-.137-.754.035a3.331,3.331,0,0,0-.929,1.077,1.161,1.161,0,0,0-.167.687,1.016,1.016,0,0,0,.539.673c1,.585,2.255.162,3.327-.269a3.917,3.917,0,0,0,.84-.423c.539-.388.832-1.026,1.368-1.4a7.951,7.951,0,0,0,.827-.523c.5-.455.539-1.223.9-1.8.6-.994,1.953-1.25,2.481-2.3A2.937,2.937,0,0,0,830.637,506.133Z" transform="translate(-581.302 -306.709)"/><path class="i" d="M863.376,806.49a3,3,0,0,1-.148.916,2.214,2.214,0,0,1-1.406,1.182c-.6.208-1.234.269-1.843.45a1.617,1.617,0,0,0-.719.372,1.3,1.3,0,0,0,.415,1.91,3.577,3.577,0,0,0,2.182.337,28.757,28.757,0,0,0,4.719-.671c.56-.132,1.215-.391,1.3-.959a1.568,1.568,0,0,0-.043-.539,31.852,31.852,0,0,1-.606-5.853,12.163,12.163,0,0,0-3.416-.024C863.163,804.039,863.411,805.827,863.376,806.49Z" transform="translate(-637.263 -602.325)"/><path class="i" d="M925.378,781.67q.776,1.285,1.457,2.621a9.276,9.276,0,0,1,.792,1.942,8.928,8.928,0,0,1,.073,3.133q-.095.827-.232,1.651a2.086,2.086,0,0,1-.692,1.46,1.6,1.6,0,0,0,1.374.121,3.955,3.955,0,0,0,1.209-.741,10.676,10.676,0,0,0,4.127-7.663,1.217,1.217,0,0,0-.127-.679,1.346,1.346,0,0,0-.4-.361,31.042,31.042,0,0,1-4.776-4.011.584.584,0,0,0-.35-.224.607.607,0,0,0-.313.089c-.886.445-2.368,1.078-2.736,2.088A1.413,1.413,0,0,1,925.378,781.67Z" transform="translate(-685.333 -584.366)"/><path class="d" d="M861.675,823.074a23.991,23.991,0,0,1-6.139,1.376.839.839,0,0,1-.735-.135.561.561,0,0,1-.048-.63,1.641,1.641,0,0,1,.45-.5l1.393-1.166a4.848,4.848,0,0,0-3.539.609,1.409,1.409,0,0,0-.706.808,1.315,1.315,0,0,0,.248.956,4.4,4.4,0,0,0,2.489,1.745,13.3,13.3,0,0,0,3.068.423l1.886.108a.509.509,0,0,0,.126.668,1.349,1.349,0,0,0,.7.256,8.981,8.981,0,0,0,2.343.032.9.9,0,0,0,.539-.191.34.34,0,0,0,0-.507.568.568,0,0,0,.517-.374,1.554,1.554,0,0,0,.07-.671,7.058,7.058,0,0,0-.59-2.917C863.285,822.207,862.327,822.8,861.675,823.074Z" transform="translate(-632.404 -615.782)"/><path class="d" d="M936.289,794.484a8.678,8.678,0,0,0-2-1.107.237.237,0,0,0-.361.092,20.5,20.5,0,0,0-2.944,5.675,9.873,9.873,0,0,1-1.471,3.33c-.1.124-.269.25-.41.178-.2-.1-.078-.428-.191-.625-.14-.248-.523-.135-.752.035a3.234,3.234,0,0,0-.927,1.077,1.077,1.077,0,0,0-.167.676,1,1,0,0,0,.525.663c1,.579,2.254.161,3.324-.269a3.81,3.81,0,0,0,.838-.418c.539-.38.833-1.013,1.369-1.382a7.908,7.908,0,0,0,.827-.517c.5-.45.539-1.207.9-1.778.6-.978,1.953-1.231,2.481-2.271A2.927,2.927,0,0,0,936.289,794.484Z" transform="translate(-687.002 -594.893)"/><path class="d" d="M857.395,594.134a8.4,8.4,0,0,1,2.912,7.06,24.9,24.9,0,0,1-1.945,7.663q-1.98,5.326-3.954,10.648a4.39,4.39,0,0,1,.269,1.212,1.489,1.489,0,0,1-.269,1.191c-.124.143-.269.253-.4.393a2.109,2.109,0,0,0-.35,1.651,4.79,4.79,0,0,1,.046,1.727c-.062.24-.175.466-.218.708a.7.7,0,0,0,.2.679c.269.215.808.146.886.485a40.26,40.26,0,0,1,8.97,11.044c.873,1.57,1.754,3.31,3.383,4.07a59.037,59.037,0,0,0-4.56,4.011c-2.276-1.993-3.41-4.894-5.269-7.273a16.7,16.7,0,0,0-4.2-3.752,7.676,7.676,0,0,1,1.032,4.638,21.5,21.5,0,0,1-.353,2.341c-.418,2.451-.38,5.118.943,7.235a7.915,7.915,0,0,1-4.609,1.059,3.922,3.922,0,0,1-2.51-1.433,94.7,94.7,0,0,0-2.907-15.319,18.869,18.869,0,0,1-.628-3.1c-.188-2.155.385-4.552-.215-6.54a12.2,12.2,0,0,1-.539-2.979v-.321a12.193,12.193,0,0,0-.253-2.187l-1.148-5.1c-.5-2.228-1-4.549-.461-6.766a3.61,3.61,0,0,1-.732-.385c-.439-.25-.369-.9-.17-1.368s.466-.988.242-1.441a3.514,3.514,0,0,0-.407-.514,2.588,2.588,0,0,1-.377-1.4l-.14-1.945a3.806,3.806,0,0,1,1.918,1.678c-1.061-1.643-.539-3.987.245-5.78a2.634,2.634,0,0,1,2.473-1.958C848.614,593.327,853.888,591.5,857.395,594.134Z" transform="translate(-623.141 -448.349)"/><path class="e" d="M890.546,638.93s-2.123,1.417-2.123,2.478-.539,10.613-.539,10.613v6.734s.353,3.54,0,4.423,0,4.953,0,5.484.539-5.484.539-5.484V656.8l.539-14.508Z" transform="translate(-658.261 -482.084)"/><path class="i" d="M801.778,418.885l-1.236-.482c-2.527-1.013-5.056-2.028-7.5-3.216a11.467,11.467,0,0,1-4.687-3.515c-.356-.539-.63-1.1-.983-1.635a13.05,13.05,0,0,0-1.347-1.6l-3.3-3.529c-.253.471.07,1.026.329,1.492a6.452,6.452,0,0,1,.611,1.56.722.722,0,0,1-.019.539,1.046,1.046,0,0,1-.45.318,1.581,1.581,0,0,0-.682,1.824,2.034,2.034,0,0,0,1.525,1.314,2.89,2.89,0,0,1,.682.164c.4.2.587.646.873.983a3.92,3.92,0,0,0,2.133,1.05c1.223,1.393,2.492,2.726,3.714,4.119a26.637,26.637,0,0,0,6.152,5.678,9.012,9.012,0,0,0,2.777,1.115A45,45,0,0,1,801.778,418.885Z" transform="translate(-581.332 -311.1)"/><path class="j" d="M801.778,418.885l-1.236-.482c-2.527-1.013-5.056-2.028-7.5-3.216a11.467,11.467,0,0,1-4.687-3.515c-.356-.539-.63-1.1-.983-1.635a13.05,13.05,0,0,0-1.347-1.6l-3.3-3.529c-.253.471.07,1.026.329,1.492a6.452,6.452,0,0,1,.611,1.56.722.722,0,0,1-.019.539,1.046,1.046,0,0,1-.45.318,1.581,1.581,0,0,0-.682,1.824,2.034,2.034,0,0,0,1.525,1.314,2.89,2.89,0,0,1,.682.164c.4.2.587.646.873.983a3.92,3.92,0,0,0,2.133,1.05c1.223,1.393,2.492,2.726,3.714,4.119a26.637,26.637,0,0,0,6.152,5.678,9.012,9.012,0,0,0,2.777,1.115A45,45,0,0,1,801.778,418.885Z" transform="translate(-581.332 -311.1)"/><path class="b" d="M842.576,462.859a1.483,1.483,0,0,1-1.056-.506,1.421,1.421,0,0,1-.116-.929,26.051,26.051,0,0,1,1.347-5.953,6.437,6.437,0,0,0,2.9,2.346,21.56,21.56,0,0,0,3.119,1.422c-.269-.086-.929,4.057-1.3,4.31-.469.329-1.6-.116-2.12-.2Z" transform="translate(-624.392 -348.041)"/><circle class="i" cx="5.662" cy="5.662" r="5.662" transform="translate(215.39 102.27)"/><path class="k" d="M852.22,464.117s3.715,3.184,2.122,5.307-2.478,3.539-.355,3.717,9.2-3.539,9.2-3.539-6.545-5.306-5.484-8.49S852.22,464.117,852.22,464.117Z" transform="translate(-632.318 -351.498)"/><path class="b" d="M849.508,482.438a4.393,4.393,0,0,0-3.251,3.27c-.417,1.907.469,4.04-.366,5.8a23.053,23.053,0,0,1-1.616,2.244,4.579,4.579,0,0,0,.426,5.282c.369.42.843.827.886,1.382a5.076,5.076,0,0,1-.075.754,5.6,5.6,0,0,0,.388,1.754,1.784,1.784,0,0,1-.148,1.449,2.1,2.1,0,0,0-.366,1.393,9.314,9.314,0,0,1-.234,2.268c-.024.329,0,.657-.03.986a5.75,5.75,0,0,1-.194.924l-.474,1.748a19.432,19.432,0,0,0,8.081,1.444,39.6,39.6,0,0,0,7.378-1.078c.741-.156,1.481-.312,2.211-.515-1.541-2.015-1.705-4.684-1.748-7.219a107.72,107.72,0,0,0-.945-12.633,16.243,16.243,0,0,0,1.384-4.544,7.678,7.678,0,0,0,.173-1.921,10.222,10.222,0,0,0-1.3-3.846,4.981,4.981,0,0,0-2.392-2.772,1.9,1.9,0,0,0-1.84.2c-.935.706-.657,1.923-.9,2.963a3.977,3.977,0,0,1-2.88,2.694,9.36,9.36,0,0,1-3.027.283.539.539,0,0,1-.383-.884C848.7,483.384,849.136,482.9,849.508,482.438Z" transform="translate(-626.042 -364.836)"/><path class="i" d="M849.594,574.49a36.864,36.864,0,0,1-6.634,4.655c-1.42.711-2.928,1.236-4.31,2a1.72,1.72,0,0,0-.808.733,1.81,1.81,0,0,0-.043,1.01l.614,4.234c.17,1.148,1.272,1.886,2.155,2.618a1.551,1.551,0,0,1,.057-1.026,3.478,3.478,0,0,1,.207-.31,2.906,2.906,0,0,0,.3-1.991,11.063,11.063,0,0,1-.234-2.042.668.668,0,0,1,.286-.593c3.009-1.446,6.249-2.556,9.29-3.93a9.837,9.837,0,0,0,2.255-1.279,3.47,3.47,0,0,0,1.309-2.174.425.425,0,0,0-.054-.331.45.45,0,0,0-.229-.135C852.39,575.435,850.952,574.98,849.594,574.49Z" transform="translate(-621.743 -435.002)"/><path class="e" d="M852.967,508.491a3.045,3.045,0,0,0-2.486,1.71,3.794,3.794,0,0,0-.14,1.347,4.377,4.377,0,0,0,.315,1.867,5.274,5.274,0,0,0,.63.916c2.489,3.189,3.739,7.195,6.163,10.435.215.285.609.657.488.994a2.472,2.472,0,0,0-.116.269.539.539,0,0,0,.178.471,1.15,1.15,0,0,1,.294.428c.046.17-.067.391-.243.377a3.6,3.6,0,0,0,2.028,1.851,8.447,8.447,0,0,0,4.528,1.112,10.337,10.337,0,0,0,.539-3.706,9.621,9.621,0,0,0-.9-2.629l-1.053-2.3a34.254,34.254,0,0,0-3.052-5.7,8.612,8.612,0,0,1-1.129-1.818c-.321-.832-1.2-1.417-1.735-2.131a13.206,13.206,0,0,0-2.678-2.933A2.419,2.419,0,0,0,852.967,508.491Z" transform="translate(-630.937 -386.77)"/><path class="b" d="M852.968,506.521a3.049,3.049,0,0,0-2.486,1.708,3.817,3.817,0,0,0-.14,1.347,4.38,4.38,0,0,0,.315,1.867,5.268,5.268,0,0,0,.63.916c2.489,3.189,3.739,7.195,6.163,10.435.215.286.609.657.488.994a2.418,2.418,0,0,0-.116.269.539.539,0,0,0,.178.471,1.145,1.145,0,0,1,.294.428c.046.17-.067.39-.242.377a3.6,3.6,0,0,0,2.028,1.85,8.446,8.446,0,0,0,4.528,1.112,10.337,10.337,0,0,0,.539-3.707,9.62,9.62,0,0,0-.9-2.629l-1.053-2.3a34.253,34.253,0,0,0-3.052-5.7,8.592,8.592,0,0,1-1.129-1.821c-.321-.83-1.2-1.414-1.735-2.128a13.2,13.2,0,0,0-2.678-2.933A2.43,2.43,0,0,0,852.968,506.521Z" transform="translate(-630.938 -385.331)"/><path class="d" d="M838.392,419.014a6.234,6.234,0,0,0-2.2.463,2.12,2.12,0,0,0-1.28,1.729,10.316,10.316,0,0,1,.105,1.309c-.094.722-.765,1.209-1.11,1.848a3.31,3.31,0,0,0,.646,3.5c.781.98,1.84,1.735,2.642,2.71a7,7,0,0,1,1.46,5.635,4.468,4.468,0,0,0-.143,1.177,3.382,3.382,0,0,0,1.013,1.829,84.485,84.485,0,0,1,6.389,8.5,22.961,22.961,0,0,1,1.573,2.694,16.32,16.32,0,0,0,1.444,2.847,7.514,7.514,0,0,0,2.12,1.818,14.972,14.972,0,0,0,6.788,2.19l-1.387-3.44a3.952,3.952,0,0,1-.418-1.91c.154-1.239,1.4-2.052,1.81-3.232a3.919,3.919,0,0,0-.073-2.37c-.49-1.743-1.471-3.311-2-5.043a10.237,10.237,0,0,1-.3-4.69,7.249,7.249,0,0,0,.218-2.074c-.256-2.106-2.726-3.114-3.868-4.9a10.585,10.585,0,0,1-1.129-3.9,12.319,12.319,0,0,0-2.23-5.476,6.429,6.429,0,0,0-5.118-2.61,10.344,10.344,0,0,0-3.076.77l-2.6.945" transform="translate(-618.735 -320.382)"/><g class="l" transform="translate(214.902 102.243)"><path d="M893.909,437.007a12.467,12.467,0,0,0,.929,3.558c-.078-.42-.143-.843-.221-1.258a15.685,15.685,0,0,0-.867-3.087C893.818,436.481,893.863,436.743,893.909,437.007Z" transform="translate(-877.564 -436.22)"/><path d="M911.695,475.75a10.289,10.289,0,0,0,.3,4.692,12.11,12.11,0,0,0,.442,1.212,10.258,10.258,0,0,1-.035-3.6,7.238,7.238,0,0,0,.219-2.074,3.235,3.235,0,0,0-.7-1.616C911.881,474.829,911.773,475.289,911.695,475.75Z" transform="translate(-890.571 -464.087)"/><path d="M916.559,520.157a13.015,13.015,0,0,0-.539-1.487,3.306,3.306,0,0,1-.1,1.557c-.407,1.177-1.659,1.993-1.81,3.232a3.919,3.919,0,0,0,.417,1.91c.092.229.183.461.269.69a2.224,2.224,0,0,1,0-.3c.153-1.239,1.4-2.053,1.81-3.232A3.76,3.76,0,0,0,916.559,520.157Z" transform="translate(-892.427 -496.461)"/><path d="M863.571,504.364a7.539,7.539,0,0,1-2.12-1.821A16.241,16.241,0,0,1,860,499.7,22.717,22.717,0,0,0,858.432,497a84.627,84.627,0,0,0-6.386-8.5c-.084-.094-.164-.191-.245-.288a2.771,2.771,0,0,0-.062.76,3.382,3.382,0,0,0,1.013,1.829,84.508,84.508,0,0,1,6.389,8.5,23.023,23.023,0,0,1,1.573,2.694,16.318,16.318,0,0,0,1.444,2.847,7.515,7.515,0,0,0,2.12,1.818,14.972,14.972,0,0,0,6.788,2.19l-.943-2.317a14.986,14.986,0,0,1-6.551-2.168Z" transform="translate(-846.865 -474.206)"/><path d="M836.506,449.113c-.808-.975-1.861-1.716-2.642-2.707-.07-.092-.137-.186-.2-.286a3.92,3.92,0,0,0,.913,2.583c.781.994,1.84,1.735,2.642,2.71a6.726,6.726,0,0,1,.808,1.228A7,7,0,0,0,836.506,449.113Z" transform="translate(-833.658 -443.453)"/></g><path class="m" d="M387.1,348.42l-1.953-1.964a1.037,1.037,0,0,0-1.473,0l-12.264,12.151-5.188-5.226a1.034,1.034,0,0,0-1.463,0l-1.974,1.953a1.048,1.048,0,0,0,0,1.473l7.879,7.938a1.045,1.045,0,0,0,1.471,0L387.1,349.894a1.037,1.037,0,0,0,0-1.473Z" transform="translate(-274.5 -268.168)"/><path class="m" d="M588.1,348.42l-1.953-1.964a1.037,1.037,0,0,0-1.473,0l-12.264,12.151-5.188-5.226a1.034,1.034,0,0,0-1.463,0l-1.974,1.953a1.048,1.048,0,0,0,0,1.474l7.879,7.938a1.045,1.045,0,0,0,1.471,0L588.1,349.894a1.037,1.037,0,0,0,0-1.473Z" transform="translate(-421.358 -268.168)"/></g></svg>