<svg xmlns="http://www.w3.org/2000/svg" xmlns:xlink="http://www.w3.org/1999/xlink" width="303.903" height="178.819" viewBox="0 0 303.903 178.819"><defs><style>.a,.c{fill:#fff;}.a{stroke:#707070;}.b{fill:#3f3d56;}.d{clip-path:url(#a);}.e{fill:#e5e5e5;}.f{fill:#323444;}.g{fill:#fbb3b2;}.h{fill:#105014;}.i{fill:#3c354c;}.j{opacity:0.1;}.k{fill:#255128;}.l{fill:#787878;}.m{fill:#297b2e;}.n{fill:#d0cde1;}.o{fill:#f2f2f2;}.p{fill:#e6e6e6;}</style><clipPath id="a"><rect class="a" width="257" height="142" transform="translate(-0.058 0.363)"/></clipPath></defs><g transform="translate(-41.763 0)"><path class="b" d="M540.976,234.492H434.13v-2.2H385.682v2.2H278.395a7.227,7.227,0,0,0-7.227,7.227V388.025a7.227,7.227,0,0,0,7.227,7.227H540.976a7.227,7.227,0,0,0,7.228-7.228V241.719a7.227,7.227,0,0,0-7.228-7.228Z" transform="translate(-218.393 -232.29)"/><rect class="c" width="257.657" height="145.345" transform="translate(62.464 14.975)"/><g class="d" transform="translate(57.86 16.336)"><ellipse class="e" cx="79.5" cy="79" rx="79.5" ry="79" transform="translate(46.942 20.363)"/><g transform="translate(70.787 5.492)"><g transform="translate(0 4.798)"><path class="f" d="M784.22,775.135c-2.952,1.851-6.326,2.894-9.372,4.522s-6.01,4.077-6.877,7.451a4.686,4.686,0,0,0,.152,3.187,6.187,6.187,0,0,0,3.281,2.6,49.782,49.782,0,0,0,39.377.445,51.782,51.782,0,0,1,6.8-2.695,44.15,44.15,0,0,1,8.705-.891,66.978,66.978,0,0,0,9.149-1.171,8.048,8.048,0,0,0,4.148-1.722,7.7,7.7,0,0,0,1.863-4.475,36.846,36.846,0,0,0-5.858-26.1,8.819,8.819,0,0,0-2.554-2.706,9.851,9.851,0,0,0-4.065-1.09c-5.858-.715-12-2.027-17.913-2.167-4.241-.094-6.374,1.922-9.372,4.839C795.479,761.357,791.859,770.366,784.22,775.135Z" transform="translate(-767.762 -221.487)"/><path class="f" d="M855.6,774.35c0,5.741.691,11.821,4.17,16.4a21.67,21.67,0,0,0,5.694,4.979c7.358,4.686,17.105,6.409,24.861,2.437a7.38,7.38,0,0,0,3.092-2.6c1.172-2.039.551-4.581-.105-6.83l-11.224-38.9c-7.252,1.113-17.913,1.9-24.357,5.577C853.059,758.076,855.6,769.218,855.6,774.35Z" transform="translate(-752.809 -221.569)"/><path class="g" d="M777.03,567.878c-.68,2.144-3.14,3.14-4.487,4.944-1.582,2.12-1.418,5.061-.844,7.639a20.2,20.2,0,0,0,5.143,10.134,12.149,12.149,0,0,0,10.544,3.585c3.773-.714,7.03-4.054,7.158-7.885a14.912,14.912,0,0,0-1.1-5.073l-7.99-23.1a.874.874,0,0,0-1.441-.633c-1.886.89-5.67,1.828-6.772,3.784S777.827,565.758,777.03,567.878Z" transform="translate(-767.156 -254.603)"/><path class="f" d="M773,568.142c2.917-.457,5.471-2.168,8.2-3.292s6.151-1.558,8.447.316c.656.539,1.289,1.277,2.144,1.266a83.866,83.866,0,0,0-5.249-16.683,1.3,1.3,0,0,0-.457-.645,1.327,1.327,0,0,0-1,0l-7.885,2.062c-2.917.762-3.257.528-3.035,3.4C774.23,555.841,774.886,568.142,773,568.142Z" transform="translate(-766.863 -256.027)"/><path class="h" d="M772.95,423.008c-1.172,1.8-1.172,4.054-1.172,6.174,0,10.368.106,20.8,1.64,31.059.363,2.461.82,4.921,1.055,7.4a85.536,85.536,0,0,1,.164,10.392l-1.172,45.106c-.141,5.518-.422,11.447-3.831,15.782a7.546,7.546,0,0,0-1.371,5c.891,11.317,2.765,22.541,4.628,33.73a20.843,20.843,0,0,1,18.91.9,208.156,208.156,0,0,0,9.712-57.408c.27-9.595-.14-19.249,1.336-28.727,2.472-15.957,1.464-32.324-.352-48.374-.574-5.085-1.793-10.322-5.049-14.258a21.62,21.62,0,0,0-11.716-6.748C781.4,421.906,777.519,423.078,772.95,423.008Z" transform="translate(-767.68 -277.725)"/><path class="i" d="M785.041,536.9a206.909,206.909,0,0,0,12.325,119.782,32.487,32.487,0,0,1,2.859,8.857c.644,5.741-2,11.259-3.514,16.812-3.515,12.63-1.489,26.079.761,39q1.406,8.084,2.894,16.156c.972,5.248,1.91,10.954-.527,15.711,2.1,8.74,3.339,17.4,5.436,26.138a4.967,4.967,0,0,1,.2,2.145,6.31,6.31,0,0,1-2.144,2.87,12.817,12.817,0,0,0-3.269,12.266c5.354-3.843,12.817-2.5,18.932,0s12.138,5.858,18.746,5.858c-.96-7.756-1.886-15.9.973-23.174,1.663-4.218,4.592-8.2,4.51-12.712-.082-4.042-2.554-7.65-3.152-11.645a29.5,29.5,0,0,1,.281-7.451c1.57-14.34-.21-28.821-1.991-43.138a25.809,25.809,0,0,0-1.968-8.2c-.832-1.687-2.074-3.3-2.051-5.19,0-2.191,1.769-3.972,2.425-6.057,1.172-3.843-.984-9.068,2.261-11.447,8.553-6.279,5.272-21.275,5.085-31.878q-.223-13.719-1.172-27.415a116.779,116.779,0,0,1,6.467,47.262c-.375,5.249-1.066,10.767.984,15.617,1.57,3.726,4.686,6.8,5.53,10.743.527,2.437.152,4.956.27,7.439s.96,5.19,3.1,6.444c.164,11.294,1.172,23.373,1.348,34.667a85.505,85.505,0,0,0,1.406,17.222,21.887,21.887,0,0,1,.867,5.553,23.176,23.176,0,0,1-1.851,6.831,39.167,39.167,0,0,0,5.858,36.143c2.765-4.909,8.529-7.51,14.152-7.92s11.177,1.008,16.625,2.437a32.557,32.557,0,0,1,3.889-19.8,16.212,16.212,0,0,0,2.051-4.405c.632-2.976-.844-5.94-1.64-8.881-1.3-4.686-.844-9.736-.539-14.632a231.546,231.546,0,0,0-2.167-49.113,41.559,41.559,0,0,0-2.238-9.373c-.422-1.078-.937-2.109-1.289-3.2a25.235,25.235,0,0,1-.937-6l-1.348-18.745c-.949-13.134,3.362-26.1,6.374-38.92,1.347-5.741,2.812-11.47,3.713-17.3,1.23-7.944,1.429-16.062,3.234-23.9,1.617-7.03,4.534-13.883,5.144-21.089.937-11.165-3.7-21.956-8.2-32.2-1.874-4.217-8.962-3.8-13.52-4.546-32.324-5.308-66.37-5.342-96.854,6.62A24.1,24.1,0,0,0,785.041,536.9Z" transform="translate(-765.454 -260.812)"/><path class="g" d="M805.068,358.516l3.585,13.942a37.223,37.223,0,0,1,1.605,9.853,7.279,7.279,0,0,1-.785,3.515,8.388,8.388,0,0,1-2.226,2.273c-2.449,1.863-4.148,6.21-6.948,7.5,1.441,2.507,3.433.879,6.034,2.132,4.58,2.226,8.775,5.425,13.742,6.526,4.687,1.031,9.607.059,14.259-1.172,6.6-1.793,13.156-4.265,18.464-8.588s8.33-8.143,8.306-14.973c-5.858.691-11.071-5.225-13.66-10.544a28.666,28.666,0,0,1-1.969-6.315l-3.14-13.813c-3.42.75-6.209,3.2-9.478,4.475s-7.135,1.394-10.767,1.558a115.977,115.977,0,0,0-19.167,2.484c-.867.176-1.956.727-1.745,1.57" transform="translate(-762.179 -290.37)"/><path class="j" d="M805.068,358.516l3.585,13.942a37.223,37.223,0,0,1,1.605,9.853,7.279,7.279,0,0,1-.785,3.515,8.388,8.388,0,0,1-2.226,2.273c-2.449,1.863-4.148,6.21-6.948,7.5,1.441,2.507,3.433.879,6.034,2.132,4.58,2.226,8.775,5.425,13.742,6.526,4.687,1.031,9.607.059,14.259-1.172,6.6-1.793,13.156-4.265,18.464-8.588s8.33-8.143,8.306-14.973c-5.858.691-11.071-5.225-13.66-10.544a28.666,28.666,0,0,1-1.969-6.315l-3.14-13.813c-3.42.75-6.209,3.2-9.478,4.475s-7.135,1.394-10.767,1.558a115.977,115.977,0,0,0-19.167,2.484c-.867.176-1.956.727-1.745,1.57" transform="translate(-762.179 -290.37)"/><ellipse class="g" cx="31.925" cy="41.227" rx="31.925" ry="41.227" transform="translate(26.646 0)"/><path class="f" d="M830.076,384.056a28.118,28.118,0,0,1,7.03-9.373c4.37-3.831,10.345-6.936,11.376-12.653l9.466,11.025a5.093,5.093,0,0,1,1.172,1.8,4.548,4.548,0,0,1-.891,3.644c-2.343,3.737-6.034,6.408-9.525,9.115a289.363,289.363,0,0,0-22.951,20.245,2.344,2.344,0,0,1-1.23.75,2.217,2.217,0,0,1-1.277-.363,53.3,53.3,0,0,1-16.367-13.309c-.34-.41-.762-.879-1.312-.843a1.688,1.688,0,0,0-.879.457c-3.152,2.577-6.6,5.659-10.638,5.26,5.237-3.761,8.2-10.04,9.3-16.4A31,31,0,0,1,804.688,377a6.69,6.69,0,0,1,4.57-4.335c-2.554,3.9-.809,9.431,2.624,12.582a25.871,25.871,0,0,0,11.622,5.635C827.487,391.636,828.658,387.125,830.076,384.056Z" transform="translate(-763.251 -288.108)"/><path class="f" d="M792.486,540.623c4.417,1.09,8.6,2.941,12.887,4.311a61.583,61.583,0,0,0,24.193,2.542,13.066,13.066,0,0,0,7.03-2.237c.55-.445,1.054-.973,1.64-1.383a11.466,11.466,0,0,1,3.152-1.3c10.744-3.363,19.741-10.615,28.469-17.714.281-.234.6-.527.574-.9a1.171,1.171,0,0,0-.351-.668L865.487,518c-12.044,2.05-24.381,1.277-36.6.972a53.111,53.111,0,0,0-7.521.2c-2.414.281-4.792.89-7.17,1.405-9.033,1.968-18.265,2.719-27.415,4.007a4.237,4.237,0,0,0-1.817.563,4.087,4.087,0,0,0-.972,1.077l-3.21,4.511a14.181,14.181,0,0,0-2.695,5.167c-.749,3.514.82,4.686,3.808,4.229A27.807,27.807,0,0,1,792.486,540.623Z" transform="translate(-766.022 -261.347)"/><path class="k" d="M829.612,400.867a57.049,57.049,0,0,0-12.079-9.431,17.113,17.113,0,0,0-5.858-2.343,7.311,7.311,0,0,0-6,1.476c-1.042.926-1.7,2.214-2.706,3.187a13.458,13.458,0,0,1-4.288,2.425,76.069,76.069,0,0,0-15.066,8.588,34.568,34.568,0,0,0-6.831,6.3c-5.307,6.8-6.1,16.039-5.963,24.661.106,6,5.858,10.451,9.818,14.938a110.081,110.081,0,0,1,10.052,14.059c2.132,3.374,4.359,7.029,4.089,11.048-.223,3.292-2.144,6.385-1.839,9.666.106,1.172.48,2.25.586,3.386.211,2.343-.714,4.687-.949,7.03-.317,3.315.762,6.608.82,9.947a31.659,31.659,0,0,1-.867,6.783c-2.249,10.708-5.073,21.475-4.5,32.406l-6.491,1.172a5.483,5.483,0,0,1-1.253,8.752c10.134,3.386,21.088,1.675,31.831,1.663,8.892,0,17.75,1.172,26.63,1.008s18.043-1.769,25.365-6.8c1.992-1.359,3.819-2.952,5.916-4.136a29.179,29.179,0,0,1,8.963-2.929,88.948,88.948,0,0,1,17.573-1.57c2.883,0,6.022.117,8.319-1.617,2.53-1.921,3.174-5.4,3.514-8.552.34-3.327.55-6.666.609-10.005a43.123,43.123,0,0,0-.41-7.779,51.022,51.022,0,0,0-1.371-5.577l-4.417-15.559c-1.827-6.42.715-13.461,1.254-20.116.129-1.57.152-3.4-1.055-4.405-.433-.363-1.031-.609-1.171-1.172a2,2,0,0,1,.281-1.57c2.343-4.686,5.858-8.822,9.068-13.051a266.725,266.725,0,0,0,15-23.045,74.15,74.15,0,0,0-19.846-44.379c-2.343-2.542-5.026-4.979-8.307-6.127a24.6,24.6,0,0,0-6.608-1.066c-9.184-.621-18.745-1.171-26.746-5.788a5.086,5.086,0,0,0-1.91-.808c-1.769-.2-3.057,1.546-4.206,2.929-2.952,3.515-7.3,5.53-11.118,8.119C840.32,387.429,834.755,394.083,829.612,400.867Z" transform="translate(-767.239 -286.479)"/><path class="k" d="M910.8,427.236c1.828,5.788,1.652,11.973,2.25,18.007a70,70,0,0,0,1.91,10.79,17.228,17.228,0,0,0,2.226,5.495c1.055,1.546,2.566,2.8,3.234,4.546a10.967,10.967,0,0,1,.48,3.656l.141,8.084a29.076,29.076,0,0,1-1.91,12.582l-5.05,15.36c-2.729,8.318-5.529,16.765-10.45,24.005a6.926,6.926,0,0,1-3.011,2.824,14.631,14.631,0,0,1-3.035.469,7.8,7.8,0,0,0-6.432,7.58,17.773,17.773,0,0,0-4.323-4.417l-10.274-8.2c-3.515-2.859-7.182-5.764-11.447-7.416a31.035,31.035,0,0,0,21.58-26.08,11.71,11.71,0,0,1,1.172-5.131c.855-1.383,2.436-2.437,2.554-4.065.14-2.05-2.179-3.6-2.179-5.647,0-1.359,1.007-2.484,1.453-3.761a9.445,9.445,0,0,0,0-4.815l-1.418-7.873a6.012,6.012,0,0,0-.7-2.249,14.539,14.539,0,0,0-1.758-1.851c-2.436-2.729-1.359-7.029,0-10.392a99.352,99.352,0,0,1,11.974-21.006,71.863,71.863,0,0,0,4.768-6.819c1.241-2.156,1.523-5.143,2.835-7.029C907.076,418.309,909.36,422.679,910.8,427.236Z" transform="translate(-751.059 -279.212)"/><path class="f" d="M865.773,505.537a5.634,5.634,0,0,0-1.336,1.406,11.846,11.846,0,0,1-5.307,3.784c1.171.844,2.237,1.675,3.339,2.531a146.3,146.3,0,0,1,22.26,21.288c.738-2.637,5.155-2.449,6.233-4.968a4.862,4.862,0,0,0,.234-2.249,68.528,68.528,0,0,0-1.687-11.716,13.263,13.263,0,0,0-2.344-5.483c-1.64-1.98-4.194-2.929-6.631-3.749C876.844,505.092,869.522,503.276,865.773,505.537Z" transform="translate(-752.085 -263.67)"/><path class="g" d="M855.074,513.789c-3.514,2.6-6.6,5.858-10.544,7.638-2.789,1.265-5.964,1.816-8.4,3.7,1.324,2.917,4.769,4.428,7.967,4.311a18.931,18.931,0,0,0,8.916-3.269c2.1-1.289,4.557-2.788,6.842-1.886.352,1.781-1.172,3.456-1.172,5.26s1.5,3.117,2.976,4.065c7.03,4.534,16.074,4.159,24.451,3.632a2.2,2.2,0,0,0,1.348-.4,2.121,2.121,0,0,0,.5-1.546c.105-1.852.152-3.691.164-5.542a7.943,7.943,0,0,0-3.4-7.826,95.579,95.579,0,0,0-14.645-10.368C864.927,508.575,859.7,510.344,855.074,513.789Z" transform="translate(-756.031 -262.713)"/><path class="i" d="M829.579,326.136c-6.133.732-10.595,5.525-9.973,10.732s6.091,8.8,12.224,8.053S842.425,339.4,841.8,334.2,835.712,325.4,829.579,326.136Zm2.086,17.349c-5.193.622-9.821-2.431-10.36-6.823s3.26-8.454,8.44-9.075,9.821,2.431,10.36,6.824S836.844,342.863,831.664,343.485Z" transform="translate(-758.162 -300.199)"/><path class="i" d="M807.939,328.736c-6.133.732-10.595,5.525-9.973,10.719s6.091,8.8,12.224,8.067,10.594-5.525,9.973-10.732S814.071,328,807.939,328.736Zm2.086,17.335c-5.193.622-9.821-2.431-10.346-6.81s3.246-8.453,8.439-9.089,9.821,2.431,10.346,6.824S815.2,345.45,810.025,346.071Z" transform="translate(-766.413 -299.208)"/><path class="i" d="M663.119,259.64l5.773,2.846-.569,3.508-5.443-3.688Z" transform="translate(-636.234 -227.446)"/><path class="i" d="M714.558,253.18l-6.388,5.926,1.1,3.094,5.893-6.561Z" transform="translate(-626.836 -229.909)"/><path class="i" d="M687.31,261.369l9.351-1.119-.484,2.321-8.025.538Z" transform="translate(-634.789 -227.214)"/></g><path class="l" d="M31.487.025C55.762-.873,62.919,22.778,62.919,29.2c0,5.985-11.486-15.546-16.8-17.3s-12.471.683-13.563.683c-4.158,0-12.923,1.294-17.962,4.436C4.427,23.285,0,36.492,0,31.733,0,25.311,8.185.769,31.487.025Z" transform="matrix(0.995, -0.105, 0.105, 0.995, 22.867, 6.577)"/></g></g><circle class="m" cx="2.643" cy="2.643" r="2.643" transform="translate(188.429 5.726)"/><path class="b" d="M539.637,613.117H514.491V611.3a.359.359,0,0,0-.359-.359h-8.621a.359.359,0,0,0-.359.359v1.812h-5.388V611.3a.359.359,0,0,0-.359-.359h-8.621a.359.359,0,0,0-.359.359v1.812h-5.388V611.3a.359.359,0,0,0-.359-.359h-8.622a.359.359,0,0,0-.359.359v1.812h-5.388V611.3a.359.359,0,0,0-.359-.359h-8.622a.359.359,0,0,0-.359.359v1.812h-5.388V611.3a.359.359,0,0,0-.359-.359H446.6a.359.359,0,0,0-.359.359v1.812h-5.388V611.3a.359.359,0,0,0-.359-.359H431.87a.359.359,0,0,0-.359.359v1.812h-5.388V611.3a.359.359,0,0,0-.359-.359H358.229a.359.359,0,0,0-.359.359v1.812h-5.388V611.3a.359.359,0,0,0-.359-.359H343.5a.359.359,0,0,0-.359.359v1.812h-5.388V611.3a.359.359,0,0,0-.359-.359h-8.621a.359.359,0,0,0-.359.359v1.812h-5.388V611.3a.359.359,0,0,0-.359-.359h-8.622a.359.359,0,0,0-.359.359v1.812H308.3V611.3a.359.359,0,0,0-.359-.359h-8.622a.359.359,0,0,0-.359.359v1.812h-5.388V611.3a.359.359,0,0,0-.359-.359h-8.621a.359.359,0,0,0-.359.359v1.812h-5.389V611.3a.359.359,0,0,0-.359-.359H269.86a.359.359,0,0,0-.359.359v1.812H252.977a8.621,8.621,0,0,0-8.621,8.621v3.9a8.621,8.621,0,0,0,8.621,8.621h286.66a8.621,8.621,0,0,0,8.621-8.621v-3.9a8.621,8.621,0,0,0-8.621-8.621Z" transform="translate(-202.592 -455.44)"/><rect class="n" width="58.27" height="55.428" transform="translate(77.21 60.829)"/><rect class="c" width="45.027" height="34.432" transform="translate(83.831 67.45)"/><rect class="o" width="24.492" height="1.289" transform="translate(83.787 105.945)"/><rect class="o" width="24.492" height="1.289" transform="translate(83.787 109.812)"/><circle class="b" cx="5.156" cy="5.156" r="5.156" transform="translate(86.687 79.52)"/><circle class="m" cx="5.156" cy="5.156" r="5.156" transform="translate(101.189 79.52)"/><circle class="p" cx="5.156" cy="5.156" r="5.156" transform="translate(115.69 79.52)"/><circle class="b" cx="2.578" cy="2.578" r="2.578" transform="translate(103.767 61.473)"/><rect class="n" width="58.27" height="55.428" transform="translate(249.748 21.069)"/><rect class="c" width="45.027" height="34.432" transform="translate(256.37 27.691)"/><rect class="m" width="15.785" height="15.785" transform="translate(266.278 33.349)"/><path class="b" d="M406.284,546.262V565.43h19.168V546.262ZM424.621,564.6H407.115v-17.5H424.62Z" transform="translate(-133.964 -508.966)"/><rect class="o" width="24.492" height="1.289" transform="translate(256.325 65.541)"/><circle class="b" cx="2.578" cy="2.578" r="2.578" transform="translate(276.305 21.714)"/><rect class="n" width="58.27" height="55.428" transform="translate(237.403 96.121)"/><rect class="c" width="45.027" height="34.432" transform="translate(244.024 102.742)"/><rect class="b" width="9.687" height="2.871" transform="translate(261.694 129.697)"/><rect class="b" width="33.108" height="1.23" transform="translate(249.984 107.349)"/><rect class="b" width="33.108" height="1.23" transform="translate(249.984 111.244)"/><rect class="b" width="33.108" height="1.23" transform="translate(249.984 115.14)"/><rect class="b" width="33.108" height="1.23" transform="translate(249.984 119.036)"/><rect class="b" width="33.108" height="1.23" transform="translate(249.984 122.932)"/><rect class="o" width="24.492" height="1.289" transform="translate(243.979 140.592)"/><rect class="o" width="34.159" height="1.289" transform="translate(243.979 143.815)"/><circle class="b" cx="2.578" cy="2.578" r="2.578" transform="translate(263.959 96.765)"/></g></svg>