<svg xmlns="http://www.w3.org/2000/svg" width="265.084" height="176.421" viewBox="0 0 265.084 176.421"><defs><style>.a{fill:#e6e6e6;}.b{fill:#3f3d56;}.c{fill:#297b2e;}.d{fill:#ffb8b8;}.e{fill:#2f2e41;}.f{fill:#d0cde1;}</style></defs><g transform="translate(0 0)"><path class="a" d="M670.667,243.586c-.55-.018-1.111-.028-1.667-.028V243c.562,0,1.129.009,1.685.028Z" transform="translate(-517.184 -212.61)"/><path class="a" d="M540.74,343.1c-.751,0-1.508-.017-2.251-.05l.025-.558c1.112.05,2.251.062,3.37.036l.013.559Q541.32,343.1,540.74,343.1Zm4.558-.206-.051-.556c1.116-.1,2.241-.243,3.343-.42l.088.552c-1.114.179-2.252.322-3.38.425Zm-10.206-.111c-1.126-.127-2.26-.3-3.371-.5l.1-.549c1.1.2,2.219.367,3.332.493Zm16.93-.969-.126-.544c1.089-.253,2.184-.547,3.253-.874l.164.534c-1.082.331-2.189.629-3.291.884Zm-23.629-.259c-1.1-.28-2.2-.6-3.27-.957l.175-.53c1.063.351,2.151.669,3.234.946Zm30.142-1.734-.2-.522c1.044-.4,2.087-.842,3.1-1.312l.235.507c-1.024.476-2.078.922-3.134,1.327Zm-36.613-.405c-1.05-.43-2.1-.9-3.111-1.4l.247-.5c1,.494,2.038.96,3.076,1.385Zm42.784-2.462-.27-.489c.979-.54,1.952-1.121,2.891-1.726l.3.47C566.68,335.825,565.7,336.412,564.705,336.958Zm-48.9-.549c-.98-.569-1.952-1.179-2.888-1.813l.313-.463c.926.626,1.887,1.229,2.856,1.792Zm54.624-3.138-.334-.448c.9-.669,1.782-1.376,2.63-2.1l.364.424c-.858.736-1.753,1.452-2.66,2.128Zm-60.269-.681c-.891-.7-1.77-1.432-2.613-2.189l.373-.416c.833.747,1.7,1.475,2.584,2.164Zm65.439-3.752-.392-.4c.8-.785,1.579-1.606,2.321-2.443l.418.371c-.751.846-1.541,1.677-2.347,2.471Zm-70.51-.8c-.789-.812-1.56-1.66-2.291-2.523l.426-.361c.723.853,1.485,1.692,2.265,2.494Zm75.031-4.3-.442-.342c.683-.885,1.345-1.806,1.968-2.737l.464.31c-.629.942-1.3,1.873-1.99,2.768Zm-79.435-.9c-.671-.911-1.319-1.856-1.925-2.81l.471-.3c.6.943,1.24,1.878,1.9,2.779Zm83.222-4.771-.484-.278c.557-.972,1.087-1.975,1.576-2.982l.5.244c-.494,1.019-1.03,2.033-1.594,3.016ZM497.03,317.1c-.54-.993-1.052-2.018-1.523-3.045l.508-.232c.465,1.016.971,2.029,1.506,3.011Zm89.852-5.162-.518-.208c.418-1.039.806-2.106,1.151-3.172l.531.172c-.349,1.078-.741,2.157-1.164,3.208ZM494.2,310.916c-.4-1.059-.766-2.145-1.091-3.228l.535-.16c.321,1.071.684,2.145,1.079,3.192Zm94.786-5.46-.542-.135c.271-1.086.507-2.194.7-3.295l.55.1c-.2,1.113-.436,2.234-.71,3.333Zm-96.743-1.064c-.249-1.1-.464-2.229-.636-3.347l.552-.085c.171,1.105.383,2.219.629,3.31Zm97.933-5.642-.555-.06c.119-1.11.2-2.241.245-3.36l.558.022C590.378,296.484,590.295,297.627,590.174,298.75ZM491.2,297.661c-.1-1.125-.154-2.27-.174-3.4l.559-.01c.019,1.12.077,2.252.172,3.365Zm98.681-5.7c-.032-1.12-.1-2.251-.209-3.363l.556-.054c.109,1.124.18,2.268.212,3.4Zm-.647-6.7c-.184-1.105-.408-2.216-.667-3.3l.543-.129c.262,1.1.489,2.222.675,3.34Zm-1.56-6.551c-.333-1.067-.708-2.135-1.113-3.176l.52-.2c.41,1.053.789,2.133,1.126,3.212Zm-2.444-6.268c-.477-1.012-1-2.019-1.54-2.994l.488-.273c.551.986,1.075,2,1.558,3.028Zm-3.282-5.877c-.612-.938-1.263-1.866-1.935-2.757l.446-.336c.68.9,1.339,1.839,1.958,2.788Zm-4.055-5.376c-.733-.845-1.5-1.676-2.293-2.469l.4-.394c.8.8,1.578,1.642,2.319,2.5Zm-4.749-4.776c-.842-.739-1.72-1.457-2.608-2.135l.339-.444c.9.686,1.786,1.412,2.638,2.159Zm-5.356-4.087c-.936-.617-1.9-1.209-2.876-1.76l.275-.486c.984.557,1.962,1.155,2.909,1.78Zm-5.867-3.318c-1.011-.483-2.05-.937-3.091-1.349l.206-.519c1.052.417,2.1.876,3.126,1.364Zm-6.268-2.482c-1.066-.339-2.157-.645-3.244-.909l.132-.543c1.1.268,2.2.577,3.281.92Zm-6.543-1.593c-1.1-.189-2.225-.342-3.338-.455l.057-.556c1.126.115,2.262.27,3.376.46Z" transform="translate(-388.924 -213.273)"/><path class="a" d="M491.8,407.33l-.558-.029c.029-.563.068-1.129.116-1.681l.556.048C491.867,406.213,491.829,406.773,491.8,407.33Z" transform="translate(-389.079 -329.805)"/><path class="b" d="M332.061,467.438H191V404.589l70.531,31.7,70.531-31.7Z" transform="translate(-137.648 -291.575)"/><path class="c" d="M191,404.589H332.061L261.67,440.9Z" transform="translate(-137.648 -291.575)"/><circle class="a" cx="5.866" cy="5.866" r="5.866" transform="translate(118.156 143.461)"/><path class="b" d="M185.791,579.529c-.064-.1-1.576-2.629-2.1-7.869-.481-4.808-.172-12.913,4.031-24.217a48.837,48.837,0,0,0-1.935-38.868l.483-.28a42.894,42.894,0,0,1,4.047,11.465,50.017,50.017,0,0,1-2.072,27.879c-7.949,21.38-2.039,31.5-1.979,31.6Z" transform="translate(-167.315 -403.799)"/><circle class="c" cx="3.631" cy="3.631" r="3.631" transform="translate(11.732 96.254)"/><circle class="c" cx="3.631" cy="3.631" r="3.631" transform="translate(23.184 109.662)"/><circle class="c" cx="3.631" cy="3.631" r="3.631" transform="translate(15.363 118.6)"/><circle class="c" cx="3.631" cy="3.631" r="3.631" transform="translate(24.86 126.142)"/><circle class="c" cx="3.631" cy="3.631" r="3.631" transform="translate(12.57 137.874)"/><path class="b" d="M198,723.436s-3.631-8.939,7.263-15.642Z" transform="translate(-177.331 -547.574)"/><path class="b" d="M146.247,738.9s-1.653-9.505-14.444-9.424Z" transform="translate(-130.043 -563.198)"/><path class="b" d="M321.2,216.8a34.209,34.209,0,0,1,7.273-21.14,34.357,34.357,0,1,0,4.446,67.02,41.923,41.923,0,0,0,20.683,3.282l-10.977-7.811a34.549,34.549,0,0,0,7.891-7.363A34.364,34.364,0,0,1,321.2,216.8Z" transform="translate(-243.408 -178.231)"/><path class="c" d="M524.478,170.647a34.358,34.358,0,0,0-61.443-21.14,34.356,34.356,0,0,1,22.043,55.128,34.578,34.578,0,0,0,14.526-.958,41.924,41.924,0,0,0,20.683,3.282l-10.977-7.811A34.323,34.323,0,0,0,524.478,170.647Z" transform="translate(-368.752 -135.706)"/><path class="a" d="M427.272,189.614a34.361,34.361,0,0,0,22.043,55.128,34.356,34.356,0,0,0-22.043-55.128Z" transform="translate(-337.737 -174.137)"/><rect class="b" width="265.084" height="0.559" transform="translate(0 175.863)"/><path class="d" d="M854.355,294.753,852.7,305.781l-18.94,12.811s-9.958,4.772-9.331,7.737c.559,2.643,8.243,2.33,10.661-1.757l22.644-10.294,7.573-14.993Z" transform="translate(-629.175 -249.907)"/><path class="d" d="M806.5,558.589l.838,11.732,8.1-.559-1.4-11.173Z" transform="translate(-581.221 -402.558)"/><path class="e" d="M896.359,711.67s-1.117-4.19-2.235-3.911l-1.676,3.073s-7.542,6.983-9.777,7.263c0,0-7.263,2.235,0,5.587h8.38a52.854,52.854,0,0,1,6.7,0c1.117.279,7.542.279,7.821-1.4s-.838-5.028-.838-5.028-1.03-8.241-2.191-6.634a21.921,21.921,0,0,1-2,2.444Z" transform="translate(-668.845 -547.539)"/><path class="d" d="M881.5,559.089l.838,11.732,8.1-.559-1.4-11.173Z" transform="translate(-635.271 -402.919)"/><path class="e" d="M971.359,712.17s-1.117-4.19-2.235-3.911l-1.676,3.073s-7.542,6.983-9.777,7.263c0,0-7.262,2.235,0,5.587h8.38s5.587-.559,6.7-.279,7.542.279,7.821-1.4-.838-4.749-.838-4.749-1.03-8.241-2.191-6.634a21.922,21.922,0,0,1-2,2.445Z" transform="translate(-722.896 -547.899)"/><path class="e" d="M889.4,433.693l-1.4,1.955v3.911l8.939,33.24,1.676,7.263s0,27.933,1.676,27.933,9.218.838,9.218-.838-.559-39.665-.559-39.665l7.542,14.246s3.352,25.14,4.469,25.419,8.939,0,9.5-1.676l-1.676-15.922s.279-17.877-4.469-21.788a44.627,44.627,0,0,0-1.676-6.7c-.838-1.955-2.235-3.073-1.4-4.469s-1.117-16.76-1.117-16.76.559-4.749-.559-6.145S889.4,433.693,889.4,433.693Z" transform="translate(-675.011 -349.59)"/><circle class="d" cx="8.659" cy="8.659" r="8.659" transform="translate(223.603 3.377)"/><path class="d" d="M944.07,192.911l-.559,5.587,2.235,1.955-14.246,6.7c3.509-6,4.548-11.455,2.793-15.363Z" transform="translate(-706.36 -175.708)"/><path class="f" d="M903.3,218.587s-2.235,4.469.559,3.352l8.659-6.145s9.5,3.631,12.849,7.821l-2.793,29.609-2.235,20.95s1.4,2.514,1.117,2.793-.559-.279-.279.559,1.117,0,.279.838-1.676,0-.838.838,0,1.117,0,1.117-1.117-6.7-10.894-1.676-13.966,6.425-21.229.279l8.38-31.844.677-12.01a49.466,49.466,0,0,1,2.126-11.82,8.938,8.938,0,0,1,3.622-5.22Z" transform="translate(-675.371 -193.004)"/><path class="d" d="M977.24,308.97l4.19,10.335-9.776,20.67a5.422,5.422,0,0,0-.838,5.587,36.907,36.907,0,0,0,2.514,4.749s2.514-1.117,2.514-5.866l14.246-20.391-1.117-16.76Z" transform="translate(-734.363 -258.945)"/><path class="f" d="M986.157,243.646a10.676,10.676,0,0,0-2.235,10.056C985.6,259.847,987,264.6,987,264.6s6.7-5.028,12.29-1.955c0,0-.838-18.156-5.587-19.832S986.157,243.646,986.157,243.646Z" transform="translate(-743.839 -212.057)"/><path class="e" d="M941.334,138.813s-2.646-5.732-7.716-4.409-7.937,3.307-8.157,5.291a28.312,28.312,0,0,0,.11,4.961s.551-4.079,4.079-3.2,9.039.221,9.039.221l.882,7.937s1.5-1.6,2.606-.721S944.861,140.577,941.334,138.813Z" transform="translate(-701.953 -134.206)"/><path class="b" d="M824.26,370.56h0l5.156-1.194a1.125,1.125,0,0,1,1.267.607l5.281,10.951a.909.909,0,0,1-.57,1.27l-5.24,1.489a1.2,1.2,0,0,1-1.432-.68l-3.37-7.827-.1.057-.641-1.483.107-.055-.941-2.185a.693.693,0,0,1,.485-.95Z" transform="translate(-628.685 -303.658)"/><path class="c" d="M830.181,370.484l.6-.139a.778.778,0,0,1,.878.425l5.155,10.881a.482.482,0,0,1-.3.668l-5.2,1.57a.624.624,0,0,1-.754-.351l-4.877-11.351a.546.546,0,0,1,.379-.748l.571-.132a.258.258,0,0,1,.286.13h0a.228.228,0,0,0,.252.115l2.71-.628a.389.389,0,0,0,.3-.438Z" transform="translate(-630.071 -304.37)"/></g></svg>